Alegreya Sans SC-Light.ufo
<glyph name="exclam" format="1">
  <advance width="252"/>
  <unicode hex="0021"/>
  <outline>
    <contour>
      <point x="115" y="655" type="line"/>
      <point x="110" y="649" type="line"/>
      <point x="106" y="213" type="line"/>
      <point x="112" y="206" type="line"/>
      <point x="145" y="209" type="line"/>
      <point x="161" y="651" type="line"/>
      <point x="154" y="657" type="line"/>
    </contour>
    <component base="period" xOffset="2"/>
  </outline>
</glyph>
<glyph name="dollar" format="1">
  <advance width="426"/>
  <unicode hex="0024"/>
  <outline>
    <contour>
      <point x="217" y="474" type="line"/>
      <point x="179" y="19" type="line"/>
      <point x="213" y="19" type="line"/>
      <point x="252" y="474" type="line"/>
    </contour>
    <contour>
      <point x="179" y="19" type="line"/>
      <point x="168" y="-121" type="line"/>
      <point x="174" y="-127" type="line"/>
      <point x="201" y="-127" type="line"/>
      <point x="214" y="19" type="line"/>
    </contour>
    <contour>
      <point x="231" y="641" type="line"/>
      <point x="217" y="474" type="line"/>
      <point x="252" y="474" type="line"/>
      <point x="265" y="635" type="line"/>
      <point x="259" y="641" type="line"/>
    </contour>
    <contour>
      <point x="131" y="497"/>
      <point x="66" y="439"/>
      <point x="66" y="367" type="curve" smooth="yes"/>
      <point x="66" y="223"/>
      <point x="315" y="241"/>
      <point x="315" y="126" type="curve" smooth="yes"/>
      <point x="315" y="79"/>
      <point x="268" y="32"/>
      <point x="195" y="32" type="curve" smooth="yes"/>
      <point x="155" y="32"/>
      <point x="103" y="47"/>
      <point x="66" y="79" type="curve"/>
      <point x="58" y="76" type="line"/>
      <point x="54" y="31" type="line"/>
      <point x="95" y="7"/>
      <point x="148" y="-4"/>
      <point x="191" y="-4" type="curve" smooth="yes"/>
      <point x="294" y="-4"/>
      <point x="359" y="60"/>
      <point x="359" y="133" type="curve" smooth="yes"/>
      <point x="359" y="278"/>
      <point x="110" y="262"/>
      <point x="110" y="370" type="curve" smooth="yes"/>
      <point x="110" y="413"/>
      <point x="151" y="461"/>
      <point x="225" y="461" type="curve" smooth="yes"/>
      <point x="256" y="461"/>
      <point x="291" y="452"/>
      <point x="326" y="430" type="curve"/>
      <point x="335" y="432" type="line"/>
      <point x="343" y="474" type="line"/>
      <point x="302" y="491"/>
      <point x="261" y="497"/>
      <point x="230" y="497" type="curve" smooth="yes"/>
    </contour>
    <contour>
      <point x="192" y="0" type="move" name="bottom"/>
    </contour>
    <contour>
      <point x="205" y="495" type="move" name="top"/>
    </contour>
  </outline>
</glyph>
<glyph name="percent" format="1">
  <advance width="809"/>
  <unicode hex="0025"/>
  <outline>
    <contour>
      <point x="160" y="516" type="move"/>
    </contour>
    <component base="zero.numr" yOffset="54.482" yScale="0.92"/>
    <component base="fraction" xOffset="373.482"/>
    <component base="zero.dnom" xOffset="435" yScale="0.92"/>
  </outline>
</glyph>
<glyph name="ampersand" format="1">
  <advance width="776"/>
  <unicode hex="0026"/>
  <outline>
    <contour>
      <point x="628" y="711" type="line"/>
      <point x="535" y="504"/>
      <point x="310" y="314"/>
      <point x="71" y="234" type="curve"/>
      <point x="86" y="198" type="line"/>
      <point x="327" y="278"/>
      <point x="566" y="479"/>
      <point x="654" y="673" type="curve"/>
      <point x="650" y="688"/>
      <point x="644" y="699"/>
      <point x="634" y="711" type="curve"/>
    </contour>
    <contour>
      <point x="133" y="500"/>
      <point x="49" y="403"/>
      <point x="49" y="258" type="curve" smooth="yes"/>
      <point x="49" y="95"/>
      <point x="149" y="-10"/>
      <point x="309" y="-10" type="curve" smooth="yes"/>
      <point x="493" y="-10"/>
      <point x="612" y="112"/>
      <point x="604" y="292" type="curve"/>
      <point x="596" y="297" type="line" smooth="yes"/>
      <point x="562" y="287" type="line"/>
      <point x="571" y="134"/>
      <point x="467" y="31"/>
      <point x="312" y="31" type="curve" smooth="yes"/>
      <point x="175" y="31"/>
      <point x="95" y="124"/>
      <point x="95" y="263" type="curve" smooth="yes"/>
      <point x="95" y="383"/>
      <point x="155" y="462"/>
      <point x="237" y="462" type="curve" smooth="yes"/>
      <point x="276" y="462"/>
      <point x="305" y="443"/>
      <point x="307" y="409" type="curve" smooth="yes"/>
      <point x="309" y="386"/>
      <point x="302" y="350"/>
      <point x="259" y="320" type="curve"/>
      <point x="307" y="330" type="line"/>
      <point x="336" y="355"/>
      <point x="345" y="391"/>
      <point x="345" y="414" type="curve" smooth="yes"/>
      <point x="345" y="464"/>
      <point x="304" y="500"/>
      <point x="237" y="500" type="curve" smooth="yes"/>
    </contour>
    <contour>
      <point x="397" y="214" type="line"/>
      <point x="405" y="216" type="line"/>
      <point x="425" y="264"/>
      <point x="453" y="285"/>
      <point x="494" y="285" type="curve"/>
      <point x="541" y="285"/>
      <point x="662" y="249"/>
      <point x="721" y="249" type="curve"/>
      <point x="776" y="253"/>
      <point x="804" y="279"/>
      <point x="830" y="332" type="curve"/>
      <point x="815" y="360" type="line"/>
      <point x="808" y="358" type="line"/>
      <point x="790" y="311"/>
      <point x="761" y="289"/>
      <point x="719" y="289" type="curve" smooth="yes"/>
      <point x="663" y="289"/>
      <point x="544" y="325"/>
      <point x="493" y="325" type="curve"/>
      <point x="437" y="321"/>
      <point x="408" y="295"/>
      <point x="383" y="242" type="curve"/>
    </contour>
  </outline>
</glyph>
<glyph name="quotesingle" format="1">
  <advance width="147"/>
  <unicode hex="0027"/>
  <outline>
    <contour>
      <point x="58" y="633" type="line"/>
      <point x="50" y="468" type="line"/>
      <point x="55" y="463" type="line"/>
      <point x="84" y="467" type="line"/>
      <point x="103" y="631" type="line"/>
      <point x="98" y="637" type="line"/>
    </contour>
  </outline>
</glyph>
<glyph name="parenleft" format="1">
  <advance width="285"/>
  <unicode hex="0028"/>
  <outline>
    <contour>
      <point x="254" y="663" type="line"/>
      <point x="134" y="576"/>
      <point x="89" y="464"/>
      <point x="88" y="258" type="curve" smooth="yes"/>
      <point x="89" y="55"/>
      <point x="134" y="-56"/>
      <point x="254" y="-142" type="curve"/>
      <point x="259" y="-142" type="line"/>
      <point x="279" y="-123" type="line"/>
      <point x="279" y="-117" type="line"/>
      <point x="173" y="-37"/>
      <point x="133" y="67"/>
      <point x="132" y="259" type="curve" smooth="yes"/>
      <point x="133" y="452"/>
      <point x="173" y="557"/>
      <point x="279" y="637" type="curve"/>
      <point x="279" y="643" type="line"/>
      <point x="259" y="663" type="line"/>
    </contour>
  </outline>
</glyph>
<glyph name="three" format="1">
  <advance width="403"/>
  <unicode hex="0033"/>
  <outline>
    <contour>
      <point x="131" y="498"/>
      <point x="84" y="478"/>
      <point x="35" y="434" type="curve"/>
      <point x="43" y="393" type="line"/>
      <point x="50" y="393" type="line"/>
      <point x="93" y="433"/>
      <point x="132" y="454"/>
      <point x="177" y="454" type="curve" smooth="yes"/>
      <point x="235" y="454"/>
      <point x="274" y="419"/>
      <point x="274" y="365" type="curve" smooth="yes"/>
      <point x="274" y="291"/>
      <point x="199" y="238"/>
      <point x="142" y="238" type="curve" smooth="yes"/>
      <point x="99" y="237" type="line"/>
      <point x="97" y="200" type="line"/>
      <point x="101" y="196" type="line"/>
      <point x="155" y="196" type="line"/>
      <point x="250" y="192"/>
      <point x="303" y="149"/>
      <point x="303" y="77" type="curve" smooth="yes"/>
      <point x="303" y="-4"/>
      <point x="237" y="-56"/>
      <point x="138" y="-56" type="curve" smooth="yes"/>
      <point x="108" y="-56"/>
      <point x="73" y="-51"/>
      <point x="42" y="-41" type="curve"/>
      <point x="38" y="-46" type="line"/>
      <point x="42" y="-90" type="line"/>
      <point x="70" y="-95"/>
      <point x="107" y="-98"/>
      <point x="135" y="-98" type="curve" smooth="yes"/>
      <point x="264" y="-98"/>
      <point x="352" y="-25"/>
      <point x="352" y="82" type="curve" smooth="yes"/>
      <point x="352" y="155"/>
      <point x="307" y="203"/>
      <point x="224" y="222" type="curve"/>
      <point x="224" y="226" type="line"/>
      <point x="290" y="259"/>
      <point x="327" y="318"/>
      <point x="327" y="375" type="curve" smooth="yes"/>
      <point x="327" y="449"/>
      <point x="269" y="498"/>
      <point x="185" y="498" type="curve" smooth="yes"/>
    </contour>
  </outline>
</glyph>
<glyph name="C" format="1">
  <advance width="522"/>
  <unicode hex="0043"/>
  <outline>
    <contour>
      <point x="142" y="644"/>
      <point x="43" y="526"/>
      <point x="43" y="316" type="curve" smooth="yes"/>
      <point x="43" y="109"/>
      <point x="138" y="-6"/>
      <point x="306" y="-6" type="curve" smooth="yes"/>
      <point x="370" y="-6"/>
      <point x="432" y="14"/>
      <point x="488" y="51" type="curve"/>
      <point x="492" y="100" type="line"/>
      <point x="484" y="103" type="line"/>
      <point x="434" y="63"/>
      <point x="371" y="40"/>
      <point x="309" y="40" type="curve" smooth="yes"/>
      <point x="173" y="40"/>
      <point x="96" y="137"/>
      <point x="96" y="319" type="curve" smooth="yes"/>
      <point x="96" y="501"/>
      <point x="175" y="599"/>
      <point x="316" y="599" type="curve" smooth="yes"/>
      <point x="377" y="599"/>
      <point x="430" y="578"/>
      <point x="474" y="543" type="curve"/>
      <point x="482" y="544" type="line"/>
      <point x="494" y="591" type="line"/>
      <point x="445" y="625"/>
      <point x="384" y="644"/>
      <point x="318" y="644" type="curve" smooth="yes"/>
    </contour>
    <contour>
      <point x="305" y="0" type="move" name="bottom"/>
    </contour>
    <contour>
      <point x="313" y="639" type="move" name="top"/>
    </contour>
  </outline>
</glyph>
<glyph name="H" format="1">
  <advance width="677"/>
  <unicode hex="0048"/>
  <outline>
    <contour>
      <point x="523" y="639" type="line"/>
      <point x="526" y="194" type="line"/>
      <point x="523" y="0" type="line"/>
      <point x="575" y="0" type="line"/>
      <point x="573" y="197" type="line"/>
      <point x="576" y="639" type="line"/>
    </contour>
    <contour>
      <point x="101" y="639" type="line"/>
      <point x="104" y="194" type="line"/>
      <point x="101" y="0" type="line"/>
      <point x="153" y="0" type="line"/>
      <point x="151" y="197" type="line"/>
      <point x="154" y="639" type="line"/>
    </contour>
    <contour>
      <point x="143" y="301" type="line"/>
      <point x="331" y="302" type="line"/>
      <point x="535" y="301" type="line"/>
      <point x="535" y="347" type="line"/>
      <point x="337" y="346" type="line"/>
      <point x="143" y="347" type="line"/>
    </contour>
    <contour>
      <point x="334" y="320" type="move" name="center"/>
    </contour>
    <contour>
      <point x="334" y="639" type="move" name="top"/>
    </contour>
  </outline>
</glyph>
<glyph name="L" format="1">
  <advance width="408"/>
  <unicode hex="004C"/>
  <outline>
    <contour>
      <point x="99" y="639" type="line"/>
      <point x="102" y="194" type="line"/>
      <point x="99" y="0" type="line"/>
      <point x="151" y="0" type="line"/>
      <point x="149" y="197" type="line"/>
      <point x="152" y="639" type="line"/>
    </contour>
    <contour>
      <point x="131" y="45" type="line"/>
      <point x="127" y="5" type="line"/>
      <point x="131" y="0" type="line"/>
      <point x="398" y="0" type="line"/>
      <point x="404" y="39" type="line"/>
      <point x="399" y="45" type="line"/>
    </contour>
    <contour>
      <point x="236" y="0" type="move" name="bottom"/>
    </contour>
    <contour>
      <point x="200" y="639" type="move" name="top"/>
    </contour>
  </outline>
</glyph>
<glyph name="N" format="1">
  <advance width="677"/>
  <unicode hex="004E"/>
  <outline>
    <contour>
      <point x="527" y="636" type="line"/>
      <point x="527" y="87" type="line"/>
      <point x="521" y="87" type="line"/>
      <point x="156" y="639" type="line"/>
      <point x="102" y="639" type="line"/>
      <point x="104" y="190" type="line"/>
      <point x="101" y="0" type="line"/>
      <point x="150" y="0" type="line"/>
      <point x="148" y="205" type="line"/>
      <point x="149" y="552" type="line"/>
      <point x="155" y="552" type="line"/>
      <point x="520" y="0" type="line"/>
      <point x="574" y="0" type="line"/>
      <point x="573" y="182" type="line"/>
      <point x="577" y="640" type="line"/>
    </contour>
    <contour>
      <point x="334" y="0" type="move" name="bottom"/>
    </contour>
    <contour>
      <point x="335" y="639" type="move" name="top"/>
    </contour>
  </outline>
</glyph>
<glyph name="S" format="1">
  <advance width="459"/>
  <unicode hex="0053"/>
  <outline>
    <contour>
      <point x="141" y="643"/>
      <point x="62" y="568"/>
      <point x="62" y="475" type="curve" smooth="yes"/>
      <point x="62" y="291"/>
      <point x="360" y="313"/>
      <point x="360" y="164" type="curve" smooth="yes"/>
      <point x="360" y="101"/>
      <point x="304" y="38"/>
      <point x="213" y="38" type="curve" smooth="yes"/>
      <point x="166" y="38"/>
      <point x="107" y="56"/>
      <point x="61" y="96" type="curve"/>
      <point x="53" y="93" type="line"/>
      <point x="47" y="40" type="line"/>
      <point x="95" y="10"/>
      <point x="157" y="-5"/>
      <point x="210" y="-5" type="curve" smooth="yes"/>
      <point x="329" y="-5"/>
      <point x="411" y="75"/>
      <point x="411" y="170" type="curve" smooth="yes"/>
      <point x="411" y="355"/>
      <point x="113" y="337"/>
      <point x="113" y="479" type="curve" smooth="yes"/>
      <point x="113" y="535"/>
      <point x="162" y="599"/>
      <point x="251" y="599" type="curve" smooth="yes"/>
      <point x="288" y="599"/>
      <point x="332" y="587"/>
      <point x="371" y="562" type="curve"/>
      <point x="382" y="565" type="line"/>
      <point x="390" y="613" type="line"/>
      <point x="340" y="636"/>
      <point x="292" y="643"/>
      <point x="257" y="643" type="curve" smooth="yes"/>
    </contour>
    <contour>
      <point x="222" y="0" type="move" name="bottom"/>
    </contour>
    <contour>
      <point x="241" y="639" type="move" name="top"/>
    </contour>
  </outline>
</glyph>
<glyph name="T" format="1">
  <advance width="483"/>
  <unicode hex="0054"/>
  <outline>
    <contour>
      <point x="216" y="629" type="line"/>
      <point x="219" y="194" type="line"/>
      <point x="216" y="0" type="line"/>
      <point x="268" y="0" type="line"/>
      <point x="266" y="197" type="line"/>
      <point x="269" y="629" type="line"/>
    </contour>
    <contour>
      <point x="30" y="639" type="line"/>
      <point x="25" y="599" type="line"/>
      <point x="29" y="593" type="line"/>
      <point x="139" y="596" type="line"/>
      <point x="347" y="596" type="line"/>
      <point x="454" y="593" type="line"/>
      <point x="459" y="633" type="line"/>
      <point x="455" y="639" type="line"/>
    </contour>
    <contour>
      <point x="235" y="0" type="move" name="bottom"/>
    </contour>
    <contour>
      <point x="245" y="320" type="move" name="center"/>
    </contour>
    <contour>
      <point x="245" y="639" type="move" name="top"/>
    </contour>
  </outline>
</glyph>
<glyph name="W" format="1">
  <advance width="889"/>
  <unicode hex="0057"/>
  <outline>
    <contour>
      <point x="827" y="639" type="line"/>
      <point x="813" y="584" type="line"/>
      <point x="618" y="63" type="line"/>
      <point x="612" y="63" type="line"/>
      <point x="434" y="582" type="line"/>
      <point x="420" y="639" type="line"/>
      <point x="366" y="639" type="line"/>
      <point x="423" y="475" type="line"/>
      <point x="270" y="63" type="line"/>
      <point x="265" y="63" type="line"/>
      <point x="87" y="586" type="line"/>
      <point x="75" y="639" type="line"/>
      <point x="22" y="639" type="line"/>
      <point x="238" y="0" type="line"/>
      <point x="291" y="0" type="line"/>
      <point x="441" y="403" type="line"/>
      <point x="446" y="403" type="line"/>
      <point x="586" y="0" type="line"/>
      <point x="639" y="0" type="line"/>
      <point x="878" y="639" type="line"/>
    </contour>
    <contour>
      <point x="437" y="639" type="move" name="top"/>
    </contour>
  </outline>
</glyph>
<glyph name="Z" format="1">
  <advance width="518"/>
  <unicode hex="005A"/>
  <outline>
    <contour>
      <point x="431" y="639" type="line"/>
      <point x="141" y="639" type="line"/>
      <point x="52" y="640" type="line"/>
      <point x="47" y="596" type="line"/>
      <point x="52" y="590" type="line"/>
      <point x="130" y="595" type="line"/>
      <point x="411" y="595" type="line"/>
      <point x="32" y="38" type="line"/>
      <point x="32" y="-2" type="line"/>
      <point x="79" y="0" type="line"/>
      <point x="377" y="0" type="line"/>
      <point x="473" y="-1" type="line"/>
      <point x="478" y="43" type="line"/>
      <point x="474" y="48" type="line"/>
      <point x="392" y="44" type="line"/>
      <point x="96" y="44" type="line"/>
      <point x="474" y="600" type="line"/>
      <point x="474" y="640" type="line"/>
    </contour>
    <contour>
      <point x="265" y="639" type="move" name="top"/>
    </contour>
  </outline>
</glyph>
<glyph name="underscore" format="1">
  <advance width="452"/>
  <unicode hex="005F"/>
  <outline>
    <contour>
      <point x="-12" y="-87" type="line"/>
      <point x="-15" y="-119" type="line"/>
      <point x="-11" y="-124" type="line"/>
      <point x="464" y="-124" type="line"/>
      <point x="467" y="-91" type="line"/>
      <point x="463" y="-87" type="line"/>
    </contour>
  </outline>
</glyph>
<glyph name="d" format="1">
  <advance width="563"/>
  <unicode hex="0064"/>
  <outline>
    <contour>
      <point x="98" y="495" type="line"/>
      <point x="138" y="451" type="line"/>
      <point x="161" y="453"/>
      <point x="258" y="456"/>
      <point x="277" y="456" type="curve" smooth="yes"/>
      <point x="398" y="456"/>
      <point x="462" y="389"/>
      <point x="462" y="255" type="curve" smooth="yes"/>
      <point x="462" y="111"/>
      <point x="393" y="37"/>
      <point x="272" y="37" type="curve" smooth="yes"/>
      <point x="251" y="37"/>
      <point x="164" y="40"/>
      <point x="137" y="42" type="curve"/>
      <point x="98" y="0" type="line"/>
      <point x="141" y="-2"/>
      <point x="237" y="-4"/>
      <point x="265" y="-4" type="curve"/>
      <point x="423" y="-4"/>
      <point x="512" y="91"/>
      <point x="512" y="264" type="curve" smooth="yes"/>
      <point x="512" y="414"/>
      <point x="429" y="499"/>
      <point x="280" y="499" type="curve"/>
    </contour>
    <contour>
      <point x="98" y="495" type="line"/>
      <point x="99" y="150" type="line"/>
      <point x="98" y="0" type="line"/>
      <point x="147" y="0" type="line"/>
      <point x="145" y="154" type="line"/>
      <point x="147" y="495" type="line"/>
    </contour>
    <contour>
      <point x="267" y="248" type="move" name="center"/>
    </contour>
    <contour>
      <point x="265" y="495" type="move" name="top"/>
    </contour>
  </outline>
</glyph>
<glyph name="e" format="1">
  <advance width="424"/>
  <unicode hex="0065"/>
  <outline>
    <contour>
      <point x="98" y="495" type="line"/>
      <point x="99" y="150" type="line"/>
      <point x="98" y="0" type="line"/>
      <point x="147" y="0" type="line"/>
      <point x="145" y="154" type="line"/>
      <point x="147" y="495" type="line"/>
    </contour>
    <contour>
      <point x="249" y="41" type="line"/>
      <point x="132" y="41" type="line"/>
      <point x="129" y="4" type="line"/>
      <point x="132" y="0" type="line"/>
      <point x="380" y="0" type="line"/>
      <point x="386" y="38" type="line"/>
      <point x="381" y="43" type="line"/>
    </contour>
    <contour>
      <point x="249" y="275" type="line"/>
      <point x="134" y="276" type="line"/>
      <point x="131" y="238" type="line"/>
      <point x="134" y="233" type="line"/>
      <point x="244" y="234" type="line"/>
      <point x="336" y="232" type="line"/>
      <point x="340" y="271" type="line"/>
      <point x="337" y="277" type="line"/>
    </contour>
    <contour>
      <point x="132" y="495" type="line"/>
      <point x="129" y="458" type="line"/>
      <point x="132" y="454" type="line"/>
      <point x="256" y="454" type="line"/>
      <point x="379" y="451" type="line"/>
      <point x="384" y="489" type="line"/>
      <point x="380" y="495" type="line"/>
    </contour>
    <contour>
      <point x="242" y="0" type="move" name="bottom"/>
    </contour>
    <contour>
      <point x="388" y="8" type="move" name="ogonek"/>
    </contour>
    <contour>
      <point x="240" y="495" type="move" name="top"/>
    </contour>
  </outline>
</glyph>
<glyph name="f" format="1">
  <advance width="379"/>
  <unicode hex="0066"/>
  <outline>
    <contour>
      <point x="93" y="495" type="line"/>
      <point x="94" y="150" type="line"/>
      <point x="93" y="0" type="line"/>
      <point x="142" y="0" type="line"/>
      <point x="140" y="154" type="line"/>
      <point x="142" y="495" type="line"/>
    </contour>
    <contour>
      <point x="236" y="264" type="line"/>
      <point x="128" y="265" type="line"/>
      <point x="128" y="223" type="line"/>
      <point x="231" y="223" type="line"/>
      <point x="320" y="223" type="line"/>
      <point x="325" y="261" type="line"/>
      <point x="320" y="266" type="line"/>
    </contour>
    <contour>
      <point x="127" y="495" type="line"/>
      <point x="124" y="458" type="line"/>
      <point x="127" y="454" type="line"/>
      <point x="242" y="454" type="line"/>
      <point x="361" y="451" type="line"/>
      <point x="366" y="489" type="line"/>
      <point x="363" y="495" type="line"/>
    </contour>
  </outline>
</glyph>
<glyph name="g" format="1">
  <advance width="529"/>
  <unicode hex="0067"/>
  <outline>
    <contour>
      <point x="143" y="499"/>
      <point x="51" y="408"/>
      <point x="51" y="240" type="curve" smooth="yes"/>
      <point x="51" y="84"/>
      <point x="128" y="-4"/>
      <point x="278" y="-4" type="curve" smooth="yes"/>
      <point x="334" y="-4"/>
      <point x="380" y="4"/>
      <point x="451" y="23" type="curve"/>
      <point x="451" y="132" type="line"/>
      <point x="452" y="195" type="line"/>
      <point x="406" y="192" type="line"/>
      <point x="406" y="125" type="line"/>
      <point x="406" y="59" type="line"/>
      <point x="350" y="42"/>
      <point x="321" y="37"/>
      <point x="279" y="37" type="curve" smooth="yes"/>
      <point x="162" y="37"/>
      <point x="102" y="104"/>
      <point x="102" y="241" type="curve" smooth="yes"/>
      <point x="102" y="386"/>
      <point x="170" y="457"/>
      <point x="297" y="457" type="curve" smooth="yes"/>
      <point x="342" y="457"/>
      <point x="385" y="444"/>
      <point x="433" y="415" type="curve"/>
      <point x="440" y="415" type="line"/>
      <point x="456" y="462" type="line"/>
      <point x="404" y="487"/>
      <point x="354" y="499"/>
      <point x="303" y="499" type="curve" smooth="yes"/>
    </contour>
    <contour>
      <point x="268" y="0" type="move" name="bottom"/>
    </contour>
    <contour>
      <point x="282" y="495" type="move" name="top"/>
    </contour>
  </outline>
</glyph>
<glyph name="j" format="1">
  <advance width="276"/>
  <unicode hex="006A"/>
  <outline>
    <contour>
      <point x="127" y="495" type="line"/>
      <point x="128" y="158" type="line"/>
      <point x="128" y="90" type="line" smooth="yes"/>
      <point x="128" y="30"/>
      <point x="104" y="-8"/>
      <point x="43" y="-46" type="curve"/>
      <point x="43" y="-52" type="line"/>
      <point x="65" y="-78" type="line"/>
      <point x="146" y="-31"/>
      <point x="175" y="14"/>
      <point x="175" y="91" type="curve" smooth="yes"/>
      <point x="175" y="164" type="line"/>
      <point x="176" y="495" type="line"/>
    </contour>
    <contour>
      <point x="29" y="495" type="line"/>
      <point x="25" y="460" type="line"/>
      <point x="29" y="455" type="line"/>
      <point x="138" y="456" type="line"/>
      <point x="137" y="495" type="line"/>
    </contour>
  </outline>
</glyph>
<glyph name="m" format="1">
  <advance width="680"/>
  <unicode hex="006D"/>
  <outline>
    <contour>
      <point x="501" y="495" type="line"/>
      <point x="472" y="425" type="line"/>
      <point x="341" y="125" type="line"/>
      <point x="337" y="125" type="line"/>
      <point x="212" y="419" type="line"/>
      <point x="183" y="495" type="line"/>
      <point x="126" y="495" type="line"/>
      <point x="70" y="0" type="line"/>
      <point x="114" y="0" type="line"/>
      <point x="129" y="155" type="line"/>
      <point x="159" y="413" type="line"/>
      <point x="164" y="413" type="line"/>
      <point x="316" y="59" type="line"/>
      <point x="358" y="59" type="line"/>
      <point x="515" y="413" type="line"/>
      <point x="520" y="413" type="line"/>
      <point x="551" y="151" type="line"/>
      <point x="565" y="0" type="line"/>
      <point x="609" y="0" type="line"/>
      <point x="556" y="495" type="line"/>
    </contour>
  </outline>
</glyph>
<glyph name="o" format="1">
  <advance width="555"/>
  <unicode hex="006F"/>
  <outline>
    <contour>
      <point x="134" y="500"/>
      <point x="51" y="408"/>
      <point x="51" y="244" type="curve" smooth="yes"/>
      <point x="51" y="85"/>
      <point x="130" y="-5"/>
      <point x="271" y="-5" type="curve" smooth="yes"/>
      <point x="420" y="-5"/>
      <point x="504" y="88"/>
      <point x="504" y="257" type="curve" smooth="yes"/>
      <point x="504" y="412"/>
      <point x="425" y="500"/>
      <point x="284" y="500" type="curve"/>
    </contour>
    <contour>
      <point x="394" y="457"/>
      <point x="454" y="389"/>
      <point x="454" y="249" type="curve" smooth="yes"/>
      <point x="454" y="107"/>
      <point x="391" y="37"/>
      <point x="274" y="37" type="curve" smooth="yes"/>
      <point x="161" y="37"/>
      <point x="102" y="106"/>
      <point x="102" y="250" type="curve" smooth="yes"/>
      <point x="102" y="389"/>
      <point x="163" y="457"/>
      <point x="279" y="457" type="curve" smooth="yes"/>
    </contour>
    <contour>
      <point x="279" y="495" type="move" name="top"/>
    </contour>
  </outline>
</glyph>
<glyph name="q" format="1">
  <advance width="557"/>
  <unicode hex="0071"/>
  <outline>
    <contour>
      <point x="134" y="500"/>
      <point x="51" y="408"/>
      <point x="51" y="244" type="curve" smooth="yes"/>
      <point x="51" y="85"/>
      <point x="130" y="-5"/>
      <point x="271" y="-5" type="curve" smooth="yes"/>
      <point x="420" y="-5"/>
      <point x="504" y="88"/>
      <point x="504" y="257" type="curve" smooth="yes"/>
      <point x="504" y="412"/>
      <point x="425" y="500"/>
      <point x="284" y="500" type="curve"/>
    </contour>
    <contour>
      <point x="287" y="2" type="line"/>
      <point x="374" y="-72"/>
      <point x="479" y="-124"/>
      <point x="591" y="-146" type="curve"/>
      <point x="597" y="-145" type="line"/>
      <point x="605" y="-139"/>
      <point x="611" y="-129"/>
      <point x="618" y="-115" type="curve"/>
      <point x="617" y="-108" type="line"/>
      <point x="508" y="-92"/>
      <point x="406" y="-47"/>
      <point x="322" y="19" type="curve"/>
    </contour>
    <contour>
      <point x="394" y="457"/>
      <point x="454" y="389"/>
      <point x="454" y="249" type="curve" smooth="yes"/>
      <point x="454" y="107"/>
      <point x="391" y="37"/>
      <point x="274" y="37" type="curve" smooth="yes"/>
      <point x="161" y="37"/>
      <point x="102" y="106"/>
      <point x="102" y="250" type="curve" smooth="yes"/>
      <point x="102" y="389"/>
      <point x="163" y="457"/>
      <point x="279" y="457" type="curve" smooth="yes"/>
    </contour>
  </outline>
</glyph>
<glyph name="s" format="1">
  <advance width="415"/>
  <unicode hex="0073"/>
  <outline>
    <contour>
      <point x="131" y="498"/>
      <point x="67" y="439"/>
      <point x="67" y="366" type="curve" smooth="yes"/>
      <point x="67" y="221"/>
      <point x="310" y="239"/>
      <point x="310" y="127" type="curve" smooth="yes"/>
      <point x="310" y="80"/>
      <point x="265" y="35"/>
      <point x="196" y="35" type="curve" smooth="yes"/>
      <point x="156" y="35"/>
      <point x="105" y="51"/>
      <point x="68" y="84" type="curve"/>
      <point x="60" y="81" type="line"/>
      <point x="55" y="30" type="line"/>
      <point x="97" y="7"/>
      <point x="149" y="-4"/>
      <point x="191" y="-4" type="curve" smooth="yes"/>
      <point x="295" y="-4"/>
      <point x="358" y="61"/>
      <point x="358" y="134" type="curve" smooth="yes"/>
      <point x="358" y="280"/>
      <point x="116" y="264"/>
      <point x="116" y="370" type="curve" smooth="yes"/>
      <point x="116" y="412"/>
      <point x="154" y="459"/>
      <point x="225" y="459" type="curve" smooth="yes"/>
      <point x="256" y="459"/>
      <point x="290" y="449"/>
      <point x="325" y="425" type="curve"/>
      <point x="334" y="427" type="line"/>
      <point x="343" y="475" type="line"/>
      <point x="303" y="492"/>
      <point x="262" y="498"/>
      <point x="230" y="498" type="curve" smooth="yes"/>
    </contour>
    <contour>
      <point x="192" y="0" type="move" name="bottom"/>
    </contour>
    <contour>
      <point x="205" y="495" type="move" name="top"/>
    </contour>
  </outline>
</glyph>
<glyph name="t" format="1">
  <advance width="433"/>
  <unicode hex="0074"/>
  <outline>
    <contour>
      <point x="193" y="485" type="line"/>
      <point x="194" y="150" type="line"/>
      <point x="193" y="0" type="line"/>
      <point x="242" y="0" type="line"/>
      <point x="240" y="154" type="line"/>
      <point x="242" y="485" type="line"/>
    </contour>
    <contour>
      <point x="41" y="495" type="line"/>
      <point x="37" y="454" type="line"/>
      <point x="41" y="449" type="line"/>
      <point x="132" y="453" type="line"/>
      <point x="305" y="453" type="line"/>
      <point x="393" y="449" type="line"/>
      <point x="397" y="489" type="line"/>
      <point x="394" y="495" type="line"/>
    </contour>
    <contour>
      <point x="212" y="0" type="move" name="bottom"/>
    </contour>
    <contour>
      <point x="202" y="248" type="move" name="center"/>
    </contour>
    <contour>
      <point x="212" y="495" type="move" name="top"/>
    </contour>
  </outline>
</glyph>
<glyph name="v" format="1">
  <advance width="491"/>
  <unicode hex="0076"/>
  <outline>
    <contour>
      <point x="417" y="495" type="line"/>
      <point x="405" y="447" type="line"/>
      <point x="245" y="53" type="line"/>
      <point x="241" y="53" type="line"/>
      <point x="94" y="449" type="line"/>
      <point x="82" y="495" type="line"/>
      <point x="31" y="495" type="line"/>
      <point x="213" y="0" type="line"/>
      <point x="269" y="0" type="line"/>
      <point x="468" y="495" type="line" smooth="yes"/>
    </contour>
  </outline>
</glyph>
<glyph name="w" format="1">
  <advance width="766"/>
  <unicode hex="0077"/>
  <outline>
    <contour>
      <point x="693" y="495" type="line"/>
      <point x="681" y="448" type="line"/>
      <point x="527" y="58" type="line"/>
      <point x="521" y="58" type="line"/>
      <point x="381" y="446" type="line"/>
      <point x="370" y="495" type="line"/>
      <point x="318" y="495" type="line"/>
      <point x="363" y="369" type="line"/>
      <point x="241" y="58" type="line"/>
      <point x="236" y="58" type="line"/>
      <point x="95" y="450" type="line"/>
      <point x="86" y="495" type="line"/>
      <point x="35" y="495" type="line"/>
      <point x="209" y="0" type="line"/>
      <point x="261" y="0" type="line"/>
      <point x="380" y="300" type="line"/>
      <point x="385" y="300" type="line"/>
      <point x="496" y="0" type="line"/>
      <point x="548" y="0" type="line"/>
      <point x="742" y="495" type="line"/>
    </contour>
    <contour>
      <point x="360" y="495" type="move" name="top"/>
    </contour>
  </outline>
</glyph>
<glyph name="x" format="1">
  <advance width="513"/>
  <unicode hex="0078"/>
  <outline>
    <contour>
      <point x="398" y="495" type="line"/>
      <point x="378" y="458" type="line"/>
      <point x="253" y="290" type="line"/>
      <point x="129" y="459" type="line"/>
      <point x="109" y="495" type="line"/>
      <point x="47" y="495" type="line"/>
      <point x="221" y="252" type="line"/>
      <point x="39" y="0" type="line"/>
      <point x="93" y="0" type="line"/>
      <point x="113" y="34" type="line"/>
      <point x="251" y="219" type="line"/>
      <point x="385" y="37" type="line"/>
      <point x="406" y="0" type="line"/>
      <point x="467" y="0" type="line"/>
      <point x="283" y="257" type="line"/>
      <point x="453" y="495" type="line"/>
    </contour>
  </outline>
</glyph>
<glyph name="z" format="1">
  <advance width="463"/>
  <unicode hex="007A"/>
  <outline>
    <contour>
      <point x="373" y="495" type="line"/>
      <point x="133" y="495" type="line"/>
      <point x="59" y="496" type="line"/>
      <point x="54" y="454" type="line"/>
      <point x="58" y="449" type="line"/>
      <point x="122" y="454" type="line"/>
      <point x="351" y="454" type="line"/>
      <point x="43" y="35" type="line"/>
      <point x="43" y="-1" type="line"/>
      <point x="84" y="0" type="line"/>
      <point x="326" y="0" type="line"/>
      <point x="409" y="-1" type="line"/>
      <point x="414" y="41" type="line"/>
      <point x="410" y="45" type="line"/>
      <point x="339" y="40" type="line"/>
      <point x="103" y="40" type="line"/>
      <point x="410" y="458" type="line"/>
      <point x="410" y="496" type="line"/>
    </contour>
    <contour>
      <point x="218" y="495" type="move" name="top"/>
    </contour>
  </outline>
</glyph>
<glyph name="yen" format="1">
  <advance width="459"/>
  <unicode hex="00A5"/>
  <outline>
    <contour>
      <point x="21" y="156" type="line"/>
      <point x="19" y="129" type="line"/>
      <point x="22" y="125" type="line"/>
      <point x="440" y="125" type="line"/>
      <point x="442" y="152" type="line"/>
      <point x="439" y="156" type="line"/>
    </contour>
    <contour>
      <point x="21" y="287" type="line"/>
      <point x="19" y="261" type="line"/>
      <point x="22" y="257" type="line"/>
      <point x="187" y="257" type="line"/>
      <point x="178" y="287" type="line"/>
    </contour>
    <contour>
      <point x="276" y="287" type="line"/>
      <point x="267" y="257" type="line"/>
      <point x="440" y="257" type="line"/>
      <point x="443" y="284" type="line"/>
      <point x="439" y="287" type="line"/>
    </contour>
    <contour>
      <point x="386" y="494" type="line"/>
      <point x="374" y="469" type="line"/>
      <point x="232" y="234" type="line"/>
      <point x="227" y="234" type="line"/>
      <point x="97" y="470" type="line"/>
      <point x="87" y="494" type="line"/>
      <point x="38" y="494" type="line"/>
      <point x="221" y="157" type="line"/>
      <point x="236" y="157" type="line"/>
      <point x="434" y="494" type="line" smooth="yes"/>
    </contour>
    <contour>
      <point x="207" y="209" type="line"/>
      <point x="207" y="146" type="line"/>
      <point x="206" y="0" type="line"/>
      <point x="250" y="0" type="line"/>
      <point x="249" y="146" type="line"/>
      <point x="250" y="209" type="line"/>
    </contour>
    <contour>
      <point x="239" y="495" type="move" name="top"/>
    </contour>
  </outline>
</glyph>
<glyph name="section" format="1">
  <advance width="414"/>
  <unicode hex="00A7"/>
  <outline>
    <contour>
      <point x="103" y="412"/>
      <point x="52" y="357"/>
      <point x="52" y="295" type="curve" smooth="yes"/>
      <point x="52" y="164"/>
      <point x="274" y="120"/>
      <point x="274" y="19" type="curve" smooth="yes"/>
      <point x="274" y="-23"/>
      <point x="235" y="-66"/>
      <point x="168" y="-66" type="curve" smooth="yes"/>
      <point x="129" y="-66"/>
      <point x="88" y="-50"/>
      <point x="54" y="-21" type="curve"/>
      <point x="47" y="-26" type="line"/>
      <point x="40" y="-70" type="line"/>
      <point x="75" y="-91"/>
      <point x="123" y="-103"/>
      <point x="164" y="-103" type="curve" smooth="yes"/>
      <point x="255" y="-103"/>
      <point x="320" y="-43"/>
      <point x="320" y="26" type="curve" smooth="yes"/>
      <point x="320" y="155"/>
      <point x="97" y="200"/>
      <point x="97" y="302" type="curve" smooth="yes"/>
      <point x="97" y="341"/>
      <point x="130" y="381"/>
      <point x="195" y="408" type="curve"/>
      <point x="175" y="438" type="line"/>
    </contour>
    <contour>
      <point x="163" y="643"/>
      <point x="100" y="586"/>
      <point x="100" y="517" type="curve" smooth="yes"/>
      <point x="100" y="390"/>
      <point x="322" y="348"/>
      <point x="322" y="240" type="curve" smooth="yes"/>
      <point x="322" y="202"/>
      <point x="295" y="165"/>
      <point x="224" y="138" type="curve"/>
      <point x="246" y="109" type="line"/>
      <point x="322" y="135"/>
      <point x="367" y="189"/>
      <point x="367" y="248" type="curve" smooth="yes"/>
      <point x="367" y="381"/>
      <point x="145" y="426"/>
      <point x="145" y="523" type="curve" smooth="yes"/>
      <point x="145" y="562"/>
      <point x="181" y="605"/>
      <point x="243" y="605" type="curve" smooth="yes"/>
      <point x="269" y="605"/>
      <point x="300" y="597"/>
      <point x="334" y="576" type="curve"/>
      <point x="343" y="578" type="line"/>
      <point x="351" y="622" type="line"/>
      <point x="315" y="637"/>
      <point x="278" y="643"/>
      <point x="250" y="643" type="curve" smooth="yes"/>
    </contour>
  </outline>
</glyph>
<glyph name="acute" format="1">
  <advance width="390"/>
  <unicode hex="00B4"/>
  <outline>
    <contour>
      <point x="204" y="629"/>
      <point x="155" y="585"/>
      <point x="104" y="543" type="curve"/>
      <point x="121" y="519" type="line"/>
      <point x="128" y="518" type="line"/>
      <point x="182" y="561"/>
      <point x="232" y="602"/>
      <point x="286" y="649" type="curve"/>
      <point x="287" y="656" type="line"/>
      <point x="267" y="683" type="line"/>
      <point x="260" y="684" type="line"/>
    </contour>
    <contour>
      <point x="166" y="455" type="move" name="_top"/>
    </contour>
  </outline>
</glyph>
<glyph name="Thorn" format="1">
  <advance width="507"/>
  <unicode hex="00DE"/>
  <outline>
    <contour>
      <point x="102" y="522" type="line"/>
      <point x="127" y="478" type="line"/>
      <point x="266" y="480" type="line"/>
      <point x="358" y="476"/>
      <point x="408" y="428"/>
      <point x="408" y="337" type="curve" smooth="yes"/>
      <point x="408" y="237"/>
      <point x="357" y="178"/>
      <point x="264" y="164" type="curve"/>
      <point x="122" y="166" type="line"/>
      <point x="122" y="120" type="line"/>
      <point x="235" y="121" type="line"/>
      <point x="381" y="121"/>
      <point x="462" y="200"/>
      <point x="462" y="339" type="curve" smooth="yes"/>
      <point x="462" y="459"/>
      <point x="394" y="524"/>
      <point x="272" y="524" type="curve"/>
    </contour>
    <contour>
      <point x="101" y="639" type="line"/>
      <point x="103" y="194" type="line"/>
      <point x="101" y="0" type="line"/>
      <point x="153" y="0" type="line"/>
      <point x="151" y="197" type="line"/>
      <point x="153" y="639" type="line"/>
    </contour>
  </outline>
</glyph>
<glyph name="ae" format="1">
  <advance width="694"/>
  <unicode hex="00E6"/>
  <outline>
    <contour>
      <point x="292" y="495" type="line"/>
      <point x="4" y="0" type="line"/>
      <point x="56" y="0" type="line"/>
      <point x="74" y="47" type="line"/>
      <point x="308" y="442" type="line"/>
      <point x="312" y="442" type="line"/>
      <point x="379" y="45" type="line"/>
      <point x="384" y="0" type="line"/>
      <point x="657" y="0" type="line"/>
      <point x="662" y="39" type="line"/>
      <point x="658" y="44" type="line"/>
      <point x="523" y="41" type="line"/>
      <point x="427" y="41" type="line"/>
      <point x="358" y="455" type="line"/>
      <point x="441" y="455" type="line"/>
      <point x="576" y="451" type="line"/>
      <point x="582" y="489" type="line"/>
      <point x="578" y="495" type="line"/>
    </contour>
    <contour>
      <point x="383" y="252" type="line"/>
      <point x="137" y="205" type="line"/>
      <point x="121" y="158" type="line"/>
      <point x="385" y="211" type="line"/>
      <point x="582" y="245" type="line"/>
      <point x="580" y="285" type="line"/>
      <point x="576" y="288" type="line"/>
    </contour>
    <contour>
      <point x="408" y="495" type="move" name="top"/>
    </contour>
  </outline>
</glyph>
<glyph name="eth" format="1">
  <advance width="577"/>
  <unicode hex="00F0"/>
  <outline>
    <contour>
      <point x="18" y="264" type="line"/>
      <point x="16" y="231" type="line"/>
      <point x="19" y="226" type="line"/>
      <point x="298" y="226" type="line"/>
      <point x="300" y="259" type="line"/>
      <point x="297" y="264" type="line"/>
    </contour>
    <component base="d" xOffset="13"/>
  </outline>
</glyph>
<glyph name="thorn" format="1">
  <advance width="456"/>
  <unicode hex="00FE"/>
  <outline>
    <contour>
      <point x="99" y="407" type="line"/>
      <point x="124" y="366" type="line"/>
      <point x="237" y="368" type="line"/>
      <point x="312" y="365"/>
      <point x="352" y="329"/>
      <point x="352" y="259" type="curve" smooth="yes"/>
      <point x="352" y="186"/>
      <point x="312" y="143"/>
      <point x="238" y="132" type="curve"/>
      <point x="118" y="134" type="line"/>
      <point x="118" y="92" type="line"/>
      <point x="213" y="92" type="line"/>
      <point x="336" y="92"/>
      <point x="404" y="154"/>
      <point x="404" y="263" type="curve" smooth="yes"/>
      <point x="404" y="357"/>
      <point x="347" y="408"/>
      <point x="246" y="408" type="curve"/>
    </contour>
    <contour>
      <point x="98" y="495" type="line"/>
      <point x="99" y="150" type="line"/>
      <point x="98" y="0" type="line"/>
      <point x="147" y="0" type="line"/>
      <point x="146" y="154" type="line"/>
      <point x="148" y="495" type="line"/>
    </contour>
  </outline>
</glyph>
<glyph name="Aogonek" format="1">
  <advance width="567"/>
  <unicode hex="0104"/>
  <outline>
    <contour>
      <point x="495" y="0" type="line"/>
      <point x="450" y="-68"/>
      <point x="437" y="-98"/>
      <point x="437" y="-126" type="curve" smooth="yes"/>
      <point x="437" y="-169"/>
      <point x="465" y="-197"/>
      <point x="508" y="-197" type="curve" smooth="yes"/>
      <point x="544" y="-197"/>
      <point x="576" y="-176"/>
      <point x="606" y="-142" type="curve"/>
      <point x="595" y="-114" type="line"/>
      <point x="591" y="-114" type="line"/>
      <point x="568" y="-142"/>
      <point x="540" y="-159"/>
      <point x="514" y="-159" type="curve" smooth="yes"/>
      <point x="488" y="-159"/>
      <point x="474" y="-144"/>
      <point x="474" y="-119" type="curve" smooth="yes"/>
      <point x="474" y="-96"/>
      <point x="487" y="-67"/>
      <point x="531" y="0" type="curve"/>
    </contour>
    <component base="A"/>
  </outline>
</glyph>
<glyph name="Hbar" format="1">
  <advance width="708"/>
  <unicode hex="0126"/>
  <outline>
    <contour>
      <point x="50" y="520" type="line"/>
      <point x="47" y="485" type="line"/>
      <point x="51" y="481" type="line"/>
      <point x="658" y="481" type="line"/>
      <point x="661" y="515" type="line"/>
      <point x="656" y="520" type="line"/>
    </contour>
    <component base="H" xOffset="14.518"/>
  </outline>
</glyph>
<glyph name="ldot" format="1">
  <advance width="381"/>
  <unicode hex="0140"/>
  <outline>
    <contour>
      <point x="195" y="-89" type="move"/>
    </contour>
    <component base="l"/>
    <component base="periodcentered" xOffset="154" yOffset="36"/>
  </outline>
</glyph>
<glyph name="eng" format="1">
  <advance width="592"/>
  <unicode hex="014B"/>
  <outline>
    <contour>
      <point x="448" y="493" type="line"/>
      <point x="449" y="85" type="line"/>
      <point x="443" y="85" type="line"/>
      <point x="150" y="495" type="line"/>
      <point x="99" y="495" type="line"/>
      <point x="100" y="146" type="line"/>
      <point x="98" y="0" type="line"/>
      <point x="144" y="0" type="line"/>
      <point x="143" y="160" type="line"/>
      <point x="143" y="413" type="line"/>
      <point x="148" y="413" type="line"/>
      <point x="443" y="1" type="line"/>
      <point x="437" y="-36"/>
      <point x="416" y="-63"/>
      <point x="378" y="-91" type="curve"/>
      <point x="378" y="-98" type="line"/>
      <point x="396" y="-120" type="line"/>
      <point x="467" y="-77"/>
      <point x="491" y="-35"/>
      <point x="491" y="36" type="curve" smooth="yes"/>
      <point x="491" y="143" type="line"/>
      <point x="494" y="496" type="line"/>
    </contour>
  </outline>
</glyph>
<glyph name="tcedilla" format="1">
  <advance width="433"/>
  <unicode hex="0163"/>
  <outline>
    <contour>
      <point x="202" y="6" type="line"/>
      <point x="181" y="-67" type="line"/>
      <point x="227" y="-95" type="line" smooth="yes"/>
      <point x="240" y="-104"/>
      <point x="249" y="-111"/>
      <point x="249" y="-125" type="curve" smooth="yes"/>
      <point x="249" y="-144"/>
      <point x="234" y="-156"/>
      <point x="213" y="-156" type="curve" smooth="yes"/>
      <point x="189" y="-156"/>
      <point x="175" y="-143"/>
      <point x="161" y="-125" type="curve"/>
      <point x="157" y="-125" type="line"/>
      <point x="150" y="-153" type="line"/>
      <point x="163" y="-169"/>
      <point x="184" y="-185"/>
      <point x="215" y="-185" type="curve" smooth="yes"/>
      <point x="254" y="-185"/>
      <point x="284" y="-162"/>
      <point x="284" y="-126" type="curve" smooth="yes"/>
      <point x="284" y="-103"/>
      <point x="273" y="-89"/>
      <point x="249" y="-73" type="curve" smooth="yes"/>
      <point x="217" y="-54" type="line"/>
      <point x="234" y="6" type="line"/>
    </contour>
    <component base="t" xOffset="-1"/>
  </outline>
</glyph>
<glyph name="uogonek" format="1">
  <advance width="545"/>
  <unicode hex="0173"/>
  <outline>
    <contour>
      <point x="352" y="37" type="line"/>
      <point x="287" y="-62" type="line" smooth="yes"/>
      <point x="273" y="-83"/>
      <point x="266" y="-105"/>
      <point x="266" y="-125" type="curve" smooth="yes"/>
      <point x="266" y="-169"/>
      <point x="294" y="-198"/>
      <point x="338" y="-198" type="curve" smooth="yes"/>
      <point x="373" y="-198"/>
      <point x="405" y="-177"/>
      <point x="435" y="-143" type="curve"/>
      <point x="423" y="-115" type="line"/>
      <point x="420" y="-115" type="line"/>
      <point x="396" y="-145"/>
      <point x="369" y="-161"/>
      <point x="343" y="-161" type="curve" smooth="yes"/>
      <point x="317" y="-161"/>
      <point x="302" y="-145"/>
      <point x="302" y="-121" type="curve" smooth="yes"/>
      <point x="302" y="-106"/>
      <point x="308" y="-89"/>
      <point x="321" y="-69" type="curve" smooth="yes"/>
      <point x="393" y="43" type="line"/>
    </contour>
    <component base="u"/>
  </outline>
</glyph>
<glyph name="ohorn" format="1">
  <advance width="559"/>
  <unicode hex="01A1"/>
  <outline>
    <contour>
      <point x="460" y="574" type="line"/>
      <point x="477" y="557"/>
      <point x="487" y="538"/>
      <point x="487" y="520" type="curve" smooth="yes"/>
      <point x="487" y="489"/>
      <point x="459" y="474"/>
      <point x="427" y="474" type="curve" smooth="yes"/>
      <point x="388" y="474"/>
      <point x="361" y="500"/>
      <point x="284" y="500" type="curve" smooth="yes"/>
      <point x="134" y="500"/>
      <point x="51" y="408"/>
      <point x="51" y="244" type="curve" smooth="yes"/>
      <point x="51" y="85"/>
      <point x="130" y="-5"/>
      <point x="273" y="-5" type="curve" smooth="yes"/>
      <point x="420" y="-5"/>
      <point x="504" y="91"/>
      <point x="504" y="253" type="curve" smooth="yes"/>
      <point x="504" y="339"/>
      <point x="481" y="400"/>
      <point x="435" y="442" type="curve"/>
      <point x="489" y="446"/>
      <point x="528" y="474"/>
      <point x="528" y="522" type="curve" smooth="yes"/>
      <point x="528" y="561"/>
      <point x="503" y="589"/>
      <point x="486" y="589" type="curve" smooth="yes"/>
      <point x="479" y="589"/>
      <point x="470" y="585"/>
      <point x="461" y="579" type="curve"/>
    </contour>
    <contour>
      <point x="161" y="34"/>
      <point x="102" y="105"/>
      <point x="102" y="246" type="curve" smooth="yes"/>
      <point x="102" y="388"/>
      <point x="162" y="458"/>
      <point x="278" y="458" type="curve" smooth="yes"/>
      <point x="394" y="458"/>
      <point x="454" y="390"/>
      <point x="454" y="250" type="curve" smooth="yes"/>
      <point x="454" y="107"/>
      <point x="392" y="34"/>
      <point x="276" y="34" type="curve" smooth="yes"/>
    </contour>
    <contour>
      <point x="277" y="495" type="move" name="top"/>
    </contour>
  </outline>
</glyph>
<glyph name="Uhorn" format="1">
  <advance width="629"/>
  <unicode hex="01AF"/>
  <outline>
    <contour>
      <point x="568" y="769"/>
      <point x="559" y="765"/>
      <point x="549" y="758" type="curve"/>
      <point x="547" y="751" type="line"/>
      <point x="572" y="728"/>
      <point x="580" y="710"/>
      <point x="580" y="691" type="curve" smooth="yes"/>
      <point x="580" y="658"/>
      <point x="555" y="639"/>
      <point x="513" y="639" type="curve"/>
      <point x="517" y="606" type="line"/>
      <point x="580" y="609"/>
      <point x="623" y="644"/>
      <point x="623" y="694" type="curve" smooth="yes"/>
      <point x="623" y="736"/>
      <point x="593" y="769"/>
      <point x="575" y="769" type="curve" smooth="yes"/>
    </contour>
    <component base="U"/>
    <contour>
      <point x="313" y="639" type="move" name="top"/>
    </contour>
  </outline>
</glyph>
<glyph name="uhorn" format="1">
  <advance width="554"/>
  <unicode hex="01B0"/>
  <outline>
    <contour>
      <point x="485" y="597"/>
      <point x="477" y="593"/>
      <point x="468" y="587" type="curve"/>
      <point x="466" y="581" type="line"/>
      <point x="486" y="564"/>
      <point x="493" y="549"/>
      <point x="493" y="534" type="curve" smooth="yes"/>
      <point x="493" y="510"/>
      <point x="473" y="495"/>
      <point x="439" y="495" type="curve"/>
      <point x="444" y="465" type="line"/>
      <point x="498" y="469"/>
      <point x="533" y="497"/>
      <point x="533" y="538" type="curve" smooth="yes"/>
      <point x="533" y="571"/>
      <point x="508" y="597"/>
      <point x="493" y="597" type="curve" smooth="yes"/>
    </contour>
    <component base="u" xOffset="-1"/>
    <contour>
      <point x="266" y="495" type="move" name="top"/>
    </contour>
  </outline>
</glyph>
<glyph name="ogonek" format="1">
  <advance width="390"/>
  <unicode hex="02DB"/>
  <outline>
    <contour>
      <point x="203" y="34" type="line"/>
      <point x="141" y="-57" type="line" smooth="yes"/>
      <point x="125" y="-79"/>
      <point x="118" y="-102"/>
      <point x="118" y="-124" type="curve" smooth="yes"/>
      <point x="118" y="-168"/>
      <point x="147" y="-197"/>
      <point x="191" y="-197" type="curve" smooth="yes"/>
      <point x="226" y="-197"/>
      <point x="257" y="-177"/>
      <point x="287" y="-142" type="curve"/>
      <point x="276" y="-114" type="line"/>
      <point x="272" y="-114" type="line"/>
      <point x="249" y="-142"/>
      <point x="223" y="-159"/>
      <point x="197" y="-159" type="curve" smooth="yes"/>
      <point x="170" y="-159"/>
      <point x="155" y="-141"/>
      <point x="155" y="-117" type="curve" smooth="yes"/>
      <point x="155" y="-101"/>
      <point x="161" y="-85"/>
      <point x="174" y="-65" type="curve" smooth="yes"/>
      <point x="239" y="34" type="line"/>
    </contour>
    <contour>
      <point x="286" y="10" type="move" name="_ogonek"/>
    </contour>
  </outline>
</glyph>
<glyph name="tildecomb" format="1">
  <advance width="390"/>
  <unicode hex="0303"/>
  <outline>
    <contour>
      <point x="321" y="650" type="line"/>
      <point x="294" y="625"/>
      <point x="280" y="606"/>
      <point x="266" y="606" type="curve"/>
      <point x="241" y="606"/>
      <point x="151" y="640"/>
      <point x="112" y="644" type="curve"/>
      <point x="104" y="641" type="line"/>
      <point x="46" y="582" type="line"/>
      <point x="46" y="576" type="line"/>
      <point x="63" y="558" type="line"/>
      <point x="70" y="558" type="line"/>
      <point x="96" y="582"/>
      <point x="110" y="602"/>
      <point x="124" y="602" type="curve"/>
      <point x="149" y="602"/>
      <point x="239" y="568"/>
      <point x="278" y="564" type="curve"/>
      <point x="286" y="566" type="line"/>
      <point x="344" y="626" type="line"/>
      <point x="344" y="632" type="line"/>
      <point x="327" y="650" type="line"/>
    </contour>
    <contour>
      <point x="195" y="455" type="move" name="_top"/>
    </contour>
  </outline>
</glyph>
<glyph name="Omega" format="1">
  <advance width="739"/>
  <unicode hex="03A9"/>
  <outline>
    <contour>
      <point x="192" y="645"/>
      <point x="95" y="523"/>
      <point x="95" y="351" type="curve" smooth="yes"/>
      <point x="95" y="230"/>
      <point x="146" y="118"/>
      <point x="241" y="46" type="curve"/>
      <point x="240" y="42" type="line"/>
      <point x="136" y="42" type="line"/>
      <point x="51" y="46" type="line"/>
      <point x="44" y="3" type="line"/>
      <point x="48" y="-2" type="line"/>
      <point x="132" y="0" type="line"/>
      <point x="269" y="0" type="line"/>
      <point x="308" y="-1" type="line"/>
      <point x="311" y="1" type="line"/>
      <point x="311" y="43" type="line"/>
      <point x="206" y="112"/>
      <point x="148" y="230"/>
      <point x="148" y="355" type="curve" smooth="yes"/>
      <point x="148" y="502"/>
      <point x="224" y="601"/>
      <point x="371" y="601" type="curve" smooth="yes"/>
      <point x="516" y="601"/>
      <point x="591" y="502"/>
      <point x="591" y="355" type="curve" smooth="yes"/>
      <point x="591" y="231"/>
      <point x="533" y="113"/>
      <point x="427" y="43" type="curve"/>
      <point x="427" y="1" type="line"/>
      <point x="430" y="-1" type="line"/>
      <point x="469" y="0" type="line"/>
      <point x="597" y="0" type="line"/>
      <point x="688" y="-2" type="line"/>
      <point x="695" y="42" type="line"/>
      <point x="691" y="47" type="line"/>
      <point x="611" y="42" type="line"/>
      <point x="498" y="42" type="line"/>
      <point x="497" y="46" type="line"/>
      <point x="594" y="120"/>
      <point x="644" y="236"/>
      <point x="644" y="358" type="curve" smooth="yes"/>
      <point x="644" y="526"/>
      <point x="554" y="645"/>
      <point x="375" y="645" type="curve" smooth="yes"/>
    </contour>
    <contour>
      <point x="20" y="639" type="move" name="topleft"/>
    </contour>
  </outline>
</glyph>
<glyph name="mu" format="1">
  <advance width="505"/>
  <unicode hex="03BC"/>
  <outline>
    <contour>
      <point x="361" y="451" type="line"/>
      <point x="361" y="115" type="line"/>
      <point x="314" y="66"/>
      <point x="266" y="40"/>
      <point x="220" y="40" type="curve" smooth="yes"/>
      <point x="161" y="40"/>
      <point x="129" y="77"/>
      <point x="130" y="141" type="curve"/>
      <point x="93" y="131" type="line"/>
      <point x="93" y="44"/>
      <point x="134" y="-5"/>
      <point x="213" y="-5" type="curve" smooth="yes"/>
      <point x="265" y="-0"/>
      <point x="313" y="26"/>
      <point x="357" y="69" type="curve"/>
      <point x="363" y="69" type="line"/>
      <point x="368" y="17"/>
      <point x="389" y="-4"/>
      <point x="425" y="-4" type="curve" smooth="yes"/>
      <point x="445" y="-4"/>
      <point x="462" y="2"/>
      <point x="477" y="12" type="curve"/>
      <point x="484" y="45" type="line"/>
      <point x="477" y="49" type="line"/>
      <point x="466" y="41"/>
      <point x="451" y="36"/>
      <point x="440" y="36" type="curve" smooth="yes"/>
      <point x="418" y="36"/>
      <point x="407" y="53"/>
      <point x="408" y="92" type="curve" smooth="yes"/>
      <point x="410" y="457" type="line"/>
    </contour>
    <contour>
      <point x="81" y="451" type="line"/>
      <point x="82" y="195" type="line"/>
      <point x="81" y="-185" type="line"/>
      <point x="130" y="-185" type="line"/>
      <point x="130" y="198" type="line"/>
      <point x="130" y="457" type="line"/>
    </contour>
  </outline>
</glyph>
<glyph name="pi" format="1">
  <advance width="605"/>
  <unicode hex="03C0"/>
  <outline>
    <contour>
      <point x="444" y="495" type="line"/>
      <point x="98" y="495" type="line"/>
      <point x="82" y="490" type="line"/>
      <point x="10" y="420" type="line"/>
      <point x="10" y="413" type="line"/>
      <point x="26" y="392" type="line"/>
      <point x="34" y="392" type="line"/>
      <point x="70" y="426"/>
      <point x="95" y="451"/>
      <point x="111" y="451" type="curve" smooth="yes"/>
      <point x="400" y="451" type="line"/>
      <point x="400" y="87" type="line" smooth="yes"/>
      <point x="400" y="20"/>
      <point x="426" y="-4"/>
      <point x="467" y="-4" type="curve" smooth="yes"/>
      <point x="485" y="-4"/>
      <point x="502" y="2"/>
      <point x="519" y="12" type="curve"/>
      <point x="526" y="45" type="line"/>
      <point x="519" y="49" type="line"/>
      <point x="507" y="41"/>
      <point x="491" y="36"/>
      <point x="479" y="36" type="curve" smooth="yes"/>
      <point x="457" y="36"/>
      <point x="447" y="53"/>
      <point x="447" y="92" type="curve" smooth="yes"/>
      <point x="448" y="451" type="line"/>
      <point x="561" y="451" type="line"/>
      <point x="567" y="489" type="line"/>
      <point x="562" y="495" type="line"/>
    </contour>
    <contour>
      <point x="160" y="478" type="line"/>
      <point x="161" y="195" type="line"/>
      <point x="160" y="-96" type="line"/>
      <point x="210" y="-96" type="line"/>
      <point x="209" y="198" type="line"/>
      <point x="209" y="481" type="line"/>
    </contour>
  </outline>
</glyph>
<glyph name="emdash" format="1">
  <advance width="949"/>
  <unicode hex="2014"/>
  <outline>
    <contour>
      <point x="-12" y="275" type="line"/>
      <point x="-15" y="240" type="line"/>
      <point x="-11" y="235" type="line"/>
      <point x="962" y="235" type="line"/>
      <point x="966" y="270" type="line"/>
      <point x="961" y="275" type="line"/>
    </contour>
  </outline>
</glyph>
<glyph name="estimated" format="1">
  <advance width="789"/>
  <unicode hex="212E"/>
  <outline>
    <contour>
      <point x="204" y="648"/>
      <point x="39" y="502"/>
      <point x="39" y="319" type="curve"/>
      <point x="39" y="137"/>
      <point x="204" y="-9"/>
      <point x="405" y="-9" type="curve"/>
      <point x="521" y="-9"/>
      <point x="625" y="39"/>
      <point x="692" y="114" type="curve"/>
      <point x="658" y="114" type="line"/>
      <point x="597" y="53"/>
      <point x="507" y="11"/>
      <point x="406" y="11" type="curve"/>
      <point x="316" y="11"/>
      <point x="235" y="48"/>
      <point x="179" y="103" type="curve"/>
      <point x="174" y="110"/>
      <point x="169" y="117"/>
      <point x="169" y="126" type="curve"/>
      <point x="169" y="307" type="line"/>
      <point x="169" y="311"/>
      <point x="173" y="314"/>
      <point x="176" y="314" type="curve"/>
      <point x="771" y="314" type="line"/>
      <point x="771" y="319" type="line"/>
      <point x="771" y="502"/>
      <point x="607" y="648"/>
      <point x="405" y="648" type="curve"/>
    </contour>
    <contour>
      <point x="494" y="628"/>
      <point x="573" y="595"/>
      <point x="630" y="540" type="curve"/>
      <point x="636" y="533"/>
      <point x="641" y="526"/>
      <point x="641" y="516" type="curve"/>
      <point x="641" y="341" type="line"/>
      <point x="641" y="337"/>
      <point x="638" y="333"/>
      <point x="634" y="333" type="curve"/>
      <point x="176" y="333" type="line"/>
      <point x="172" y="333"/>
      <point x="168" y="337"/>
      <point x="168" y="341" type="curve"/>
      <point x="168" y="512" type="line"/>
      <point x="168" y="521"/>
      <point x="172" y="530"/>
      <point x="179" y="537" type="curve"/>
      <point x="236" y="594"/>
      <point x="316" y="628"/>
      <point x="406" y="628" type="curve"/>
    </contour>
  </outline>
</glyph>
<glyph name="partialdiff" format="1">
  <advance width="507"/>
  <unicode hex="2202"/>
  <outline>
    <contour>
      <point x="103" y="715" type="line"/>
      <point x="72" y="691" type="line"/>
      <point x="72" y="683" type="line"/>
      <point x="293" y="604"/>
      <point x="409" y="462"/>
      <point x="409" y="254" type="curve"/>
      <point x="409" y="113"/>
      <point x="352" y="34"/>
      <point x="245" y="34" type="curve"/>
      <point x="145" y="34"/>
      <point x="90" y="94"/>
      <point x="90" y="204" type="curve"/>
      <point x="90" y="314"/>
      <point x="146" y="374"/>
      <point x="247" y="374" type="curve"/>
      <point x="301" y="374"/>
      <point x="359" y="347"/>
      <point x="412" y="299" type="curve"/>
      <point x="404" y="370" type="line"/>
      <point x="392" y="360" type="line"/>
      <point x="347" y="393"/>
      <point x="293" y="414"/>
      <point x="243" y="417" type="curve"/>
      <point x="114" y="417"/>
      <point x="42" y="336"/>
      <point x="42" y="204" type="curve"/>
      <point x="42" y="74"/>
      <point x="111" y="-7"/>
      <point x="244" y="-7" type="curve"/>
      <point x="381" y="-7"/>
      <point x="458" y="89"/>
      <point x="458" y="256" type="curve"/>
      <point x="458" y="473"/>
      <point x="331" y="628"/>
      <point x="110" y="715" type="curve"/>
    </contour>
  </outline>
</glyph>
<glyph name="minus" format="1">
  <advance width="480"/>
  <unicode hex="2212"/>
  <outline>
    <contour>
      <point x="38" y="287" type="line"/>
      <point x="35" y="252" type="line"/>
      <point x="39" y="248" type="line"/>
      <point x="442" y="248" type="line"/>
      <point x="446" y="282" type="line"/>
      <point x="441" y="287" type="line"/>
    </contour>
  </outline>
</glyph>
<glyph name="infinity" format="1">
  <advance width="480"/>
  <unicode hex="221E"/>
  <outline>
    <contour>
      <point x="295" y="398"/>
      <point x="258" y="347"/>
      <point x="239" y="307" type="curve"/>
      <point x="215" y="355"/>
      <point x="181" y="398"/>
      <point x="115" y="398" type="curve" smooth="yes"/>
      <point x="42" y="398"/>
      <point x="-3" y="348"/>
      <point x="-3" y="267" type="curve" smooth="yes"/>
      <point x="-3" y="188"/>
      <point x="42" y="134"/>
      <point x="116" y="134" type="curve" smooth="yes"/>
      <point x="180" y="134"/>
      <point x="215" y="176"/>
      <point x="242" y="232" type="curve"/>
      <point x="270" y="177"/>
      <point x="303" y="134"/>
      <point x="367" y="134" type="curve" smooth="yes"/>
      <point x="436" y="134"/>
      <point x="483" y="182"/>
      <point x="483" y="264" type="curve" smooth="yes"/>
      <point x="483" y="341"/>
      <point x="440" y="398"/>
      <point x="365" y="398" type="curve" smooth="yes"/>
    </contour>
    <contour>
      <point x="176" y="361"/>
      <point x="202" y="319"/>
      <point x="223" y="271" type="curve"/>
      <point x="200" y="220"/>
      <point x="173" y="172"/>
      <point x="115" y="172" type="curve" smooth="yes"/>
      <point x="64" y="172"/>
      <point x="31" y="209"/>
      <point x="31" y="268" type="curve" smooth="yes"/>
      <point x="31" y="325"/>
      <point x="63" y="361"/>
      <point x="117" y="361" type="curve" smooth="yes"/>
    </contour>
    <contour>
      <point x="418" y="360"/>
      <point x="448" y="320"/>
      <point x="448" y="264" type="curve" smooth="yes"/>
      <point x="448" y="204"/>
      <point x="415" y="170"/>
      <point x="365" y="170" type="curve" smooth="yes"/>
      <point x="308" y="170"/>
      <point x="281" y="214"/>
      <point x="257" y="265" type="curve"/>
      <point x="277" y="311"/>
      <point x="302" y="360"/>
      <point x="363" y="360" type="curve" smooth="yes"/>
    </contour>
  </outline>
</glyph>
<glyph name="notequal" format="1">
  <advance width="480"/>
  <unicode hex="2260"/>
  <outline>
    <contour>
      <point x="267" y="508" type="line"/>
      <point x="151" y="23" type="line"/>
      <point x="155" y="18" type="line"/>
      <point x="190" y="18" type="line"/>
      <point x="306" y="502" type="line"/>
      <point x="302" y="508" type="line"/>
    </contour>
    <component base="equal"/>
  </outline>
</glyph>
<glyph name="lozenge" format="1">
  <advance width="489"/>
  <unicode hex="25CA"/>
  <outline>
    <contour>
      <point x="218" y="640" type="line"/>
      <point x="58" y="291" type="line"/>
      <point x="58" y="271" type="line"/>
      <point x="219" y="-76" type="line"/>
      <point x="223" y="-79" type="line"/>
      <point x="262" y="-78" type="line"/>
      <point x="422" y="272" type="line"/>
      <point x="422" y="292" type="line"/>
      <point x="261" y="639" type="line"/>
      <point x="257" y="642" type="line"/>
    </contour>
    <contour>
      <point x="384" y="282" type="line"/>
      <point x="243" y="-29" type="line"/>
      <point x="239" y="-29" type="line"/>
      <point x="95" y="280" type="line"/>
      <point x="235" y="591" type="line"/>
      <point x="240" y="591" type="line"/>
    </contour>
  </outline>
</glyph>
<glyph name="C.ss01" format="1">
  <advance width="464"/>
  <outline>
    <contour>
      <point x="-100" y="467" type="line"/>
      <point x="564" y="467" type="line"/>
      <point x="564" y="495" type="line"/>
      <point x="-100" y="495" type="line"/>
    </contour>
    <contour>
      <point x="-100" y="0" type="line"/>
      <point x="564" y="0" type="line"/>
      <point x="564" y="28" type="line"/>
      <point x="-100" y="28" type="line"/>
    </contour>
    <component base="c" xOffset="5" yOffset="6" xScale="0.98" yScale="0.98"/>
  </outline>
</glyph>
<glyph name="L.ss01" format="1">
  <advance width="380"/>
  <outline>
    <contour>
      <point x="97" y="494" type="line"/>
      <point x="98" y="164" type="line"/>
      <point x="97" y="1" type="line"/>
      <point x="358" y="1" type="line"/>
      <point x="359" y="132" type="line"/>
      <point x="322" y="131" type="line"/>
      <point x="320" y="43" type="line"/>
      <point x="144" y="43" type="line"/>
      <point x="144" y="167" type="line"/>
      <point x="146" y="494" type="line"/>
    </contour>
    <contour>
      <point x="-100" y="28" type="line"/>
      <point x="-100" y="0" type="line"/>
      <point x="480" y="0" type="line"/>
      <point x="480" y="28" type="line"/>
    </contour>
    <contour>
      <point x="-100" y="495" type="line"/>
      <point x="-100" y="467" type="line"/>
      <point x="480" y="467" type="line"/>
      <point x="480" y="495" type="line"/>
    </contour>
  </outline>
</glyph>
<glyph name="V.ss01" format="1">
  <advance width="491"/>
  <outline>
    <contour>
      <point x="-100" y="467" type="line"/>
      <point x="591" y="467" type="line"/>
      <point x="591" y="495" type="line"/>
      <point x="-100" y="495" type="line"/>
    </contour>
    <contour>
      <point x="-100" y="0" type="line"/>
      <point x="591" y="0" type="line"/>
      <point x="591" y="28" type="line"/>
      <point x="-100" y="28" type="line"/>
    </contour>
    <component base="v" xOffset="4" yOffset="4" xScale="0.98" yScale="0.98"/>
  </outline>
</glyph>
<glyph name="X.ss01" format="1">
  <advance width="513"/>
  <outline>
    <contour>
      <point x="-100" y="467" type="line"/>
      <point x="613" y="467" type="line"/>
      <point x="613" y="495" type="line"/>
      <point x="-100" y="495" type="line"/>
    </contour>
    <contour>
      <point x="-100" y="0" type="line"/>
      <point x="613" y="0" type="line"/>
      <point x="613" y="28" type="line"/>
      <point x="-100" y="28" type="line"/>
    </contour>
    <component base="x" xOffset="8" yOffset="8" xScale="0.97" yScale="0.97"/>
  </outline>
</glyph>
<glyph name="b.sups" format="1">
  <advance width="343"/>
  <outline>
    <contour>
      <point x="163" y="644"/>
      <point x="132" y="626"/>
      <point x="108" y="597" type="curve"/>
      <point x="93" y="597" type="line"/>
      <point x="97" y="557" type="line"/>
      <point x="121" y="588"/>
      <point x="151" y="605"/>
      <point x="183" y="605" type="curve" smooth="yes"/>
      <point x="235" y="605"/>
      <point x="264" y="566"/>
      <point x="264" y="495" type="curve" smooth="yes"/>
      <point x="264" y="413"/>
      <point x="226" y="372"/>
      <point x="162" y="372" type="curve" smooth="yes"/>
      <point x="139" y="372"/>
      <point x="104" y="380"/>
      <point x="70" y="399" type="curve"/>
      <point x="67" y="355" type="line"/>
      <point x="97" y="345"/>
      <point x="132" y="338"/>
      <point x="165" y="338" type="curve" smooth="yes"/>
      <point x="255" y="338"/>
      <point x="309" y="397"/>
      <point x="309" y="500" type="curve" smooth="yes"/>
      <point x="309" y="591"/>
      <point x="267" y="644"/>
      <point x="195" y="644" type="curve" smooth="yes"/>
    </contour>
    <contour>
      <point x="59" y="796" type="line"/>
      <point x="60" y="468" type="line"/>
      <point x="59" y="346" type="line"/>
      <point x="64" y="341" type="line"/>
      <point x="106" y="355" type="line"/>
      <point x="105" y="475" type="line"/>
      <point x="108" y="800" type="line"/>
    </contour>
  </outline>
</glyph>
<glyph name="breve.cap" format="1">
  <advance width="390"/>
  <outline>
    <contour>
      <point x="282" y="645" type="line"/>
      <point x="269" y="605"/>
      <point x="239" y="582"/>
      <point x="194" y="582" type="curve" smooth="yes"/>
      <point x="149" y="582"/>
      <point x="119" y="605"/>
      <point x="107" y="645" type="curve"/>
      <point x="98" y="645" type="line"/>
      <point x="80" y="625" type="line"/>
      <point x="96" y="572"/>
      <point x="137" y="543"/>
      <point x="193" y="543" type="curve" smooth="yes"/>
      <point x="249" y="543"/>
      <point x="291" y="572"/>
      <point x="309" y="625" type="curve"/>
      <point x="291" y="645" type="line"/>
    </contour>
    <contour>
      <point x="195" y="455" type="move" name="_top"/>
    </contour>
  </outline>
</glyph>
<glyph name="brevehookabove" format="1">
  <advance width="390"/>
  <outline>
    <component base="breve.cap" yOffset="-20"/>
    <component base="hookabove" xOffset="4" yOffset="87"/>
    <contour>
      <point x="195" y="455" type="move" name="_top"/>
    </contour>
  </outline>
</glyph>
<glyph name="c.sups" format="1">
  <advance width="254"/>
  <outline>
    <contour>
      <point x="85" y="646"/>
      <point x="35" y="587"/>
      <point x="35" y="489" type="curve" smooth="yes"/>
      <point x="35" y="397"/>
      <point x="82" y="338"/>
      <point x="158" y="338" type="curve" smooth="yes"/>
      <point x="190" y="338"/>
      <point x="220" y="348"/>
      <point x="244" y="360" type="curve"/>
      <point x="249" y="398" type="line"/>
      <point x="244" y="401" type="line"/>
      <point x="221" y="387"/>
      <point x="193" y="379"/>
      <point x="168" y="379" type="curve" smooth="yes"/>
      <point x="114" y="379"/>
      <point x="81" y="422"/>
      <point x="81" y="493" type="curve" smooth="yes"/>
      <point x="81" y="563"/>
      <point x="113" y="606"/>
      <point x="166" y="606" type="curve" smooth="yes"/>
      <point x="191" y="606"/>
      <point x="215" y="596"/>
      <point x="234" y="584" type="curve"/>
      <point x="240" y="585" type="line"/>
      <point x="250" y="623" type="line"/>
      <point x="228" y="636"/>
      <point x="196" y="646"/>
      <point x="166" y="646" type="curve" smooth="yes"/>
    </contour>
    <contour>
      <point x="170" y="0" type="move" name="bottom"/>
    </contour>
    <contour>
      <point x="174" y="296" type="move" name="top"/>
    </contour>
  </outline>
</glyph>
<glyph name="circumflexacute" format="1">
  <advance width="390"/>
  <outline>
    <contour>
      <point x="316" y="738" type="line"/>
      <point x="246" y="646" type="line"/>
      <point x="266" y="629" type="line"/>
      <point x="273" y="629" type="line"/>
      <point x="348" y="717" type="line"/>
      <point x="348" y="724" type="line"/>
      <point x="322" y="738" type="line"/>
    </contour>
    <component base="circumflex.cap" yOffset="-20"/>
    <contour>
      <point x="195" y="455" type="move" name="_top"/>
    </contour>
  </outline>
</glyph>
<glyph name="circumflexgrave" format="1">
  <advance width="390"/>
  <outline>
    <contour>
      <point x="218" y="724" type="line"/>
      <point x="218" y="717" type="line"/>
      <point x="293" y="629" type="line"/>
      <point x="300" y="629" type="line"/>
      <point x="320" y="646" type="line"/>
      <point x="250" y="738" type="line"/>
      <point x="244" y="738" type="line"/>
    </contour>
    <component base="circumflex.cap" yOffset="-20"/>
    <contour>
      <point x="195" y="455" type="move" name="_top"/>
    </contour>
  </outline>
</glyph>
<glyph name="dieresisgrave" format="1">
  <advance width="390"/>
  <outline>
    <contour>
      <point x="97" y="762" type="line"/>
      <point x="88" y="730" type="line"/>
      <point x="92" y="723" type="line"/>
      <point x="160" y="702"/>
      <point x="224" y="685"/>
      <point x="289" y="668" type="curve"/>
      <point x="296" y="673" type="line"/>
      <point x="302" y="701" type="line"/>
      <point x="239" y="718"/>
      <point x="176" y="738"/>
      <point x="103" y="766" type="curve"/>
    </contour>
    <contour>
      <point x="249" y="613"/>
      <point x="237" y="600"/>
      <point x="237" y="581" type="curve" smooth="yes"/>
      <point x="237" y="562"/>
      <point x="249" y="550"/>
      <point x="268" y="550" type="curve" smooth="yes"/>
      <point x="287" y="550"/>
      <point x="300" y="563"/>
      <point x="300" y="582" type="curve" smooth="yes"/>
      <point x="300" y="601"/>
      <point x="288" y="613"/>
      <point x="269" y="613" type="curve" smooth="yes"/>
    </contour>
    <contour>
      <point x="100" y="613"/>
      <point x="88" y="600"/>
      <point x="88" y="581" type="curve" smooth="yes"/>
      <point x="88" y="562"/>
      <point x="100" y="550"/>
      <point x="119" y="550" type="curve" smooth="yes"/>
      <point x="138" y="550"/>
      <point x="151" y="563"/>
      <point x="151" y="582" type="curve" smooth="yes"/>
      <point x="151" y="601"/>
      <point x="139" y="613"/>
      <point x="120" y="613" type="curve" smooth="yes"/>
    </contour>
    <contour>
      <point x="195" y="455" type="move" name="_top"/>
    </contour>
  </outline>
</glyph>
<glyph name="dieresismacron" format="1">
  <advance width="390"/>
  <outline>
    <contour>
      <point x="249" y="613"/>
      <point x="237" y="600"/>
      <point x="237" y="581" type="curve" smooth="yes"/>
      <point x="237" y="562"/>
      <point x="249" y="550"/>
      <point x="268" y="550" type="curve" smooth="yes"/>
      <point x="287" y="550"/>
      <point x="300" y="563"/>
      <point x="300" y="582" type="curve" smooth="yes"/>
      <point x="300" y="601"/>
      <point x="288" y="613"/>
      <point x="269" y="613" type="curve" smooth="yes"/>
    </contour>
    <contour>
      <point x="100" y="613"/>
      <point x="88" y="600"/>
      <point x="88" y="581" type="curve" smooth="yes"/>
      <point x="88" y="562"/>
      <point x="100" y="550"/>
      <point x="119" y="550" type="curve" smooth="yes"/>
      <point x="138" y="550"/>
      <point x="151" y="563"/>
      <point x="151" y="582" type="curve" smooth="yes"/>
      <point x="151" y="601"/>
      <point x="139" y="613"/>
      <point x="120" y="613" type="curve" smooth="yes"/>
    </contour>
    <contour>
      <point x="70" y="721" type="line"/>
      <point x="67" y="688" type="line"/>
      <point x="72" y="684" type="line"/>
      <point x="320" y="684" type="line"/>
      <point x="323" y="716" type="line"/>
      <point x="319" y="721" type="line"/>
    </contour>
    <contour>
      <point x="195" y="455" type="move" name="_top"/>
    </contour>
  </outline>
</glyph>
<glyph name="eight.dnom" format="1">
  <advance width="331"/>
  <outline>
    <contour>
      <point x="103" y="377"/>
      <point x="57" y="341"/>
      <point x="57" y="281" type="curve" smooth="yes"/>
      <point x="57" y="232"/>
      <point x="89" y="208"/>
      <point x="126" y="191" type="curve"/>
      <point x="126" y="189" type="line"/>
      <point x="82" y="172"/>
      <point x="41" y="145"/>
      <point x="41" y="91" type="curve" smooth="yes"/>
      <point x="41" y="35"/>
      <point x="84" y="-4"/>
      <point x="158" y="-4" type="curve" smooth="yes"/>
      <point x="235" y="-4"/>
      <point x="285" y="36"/>
      <point x="285" y="101" type="curve" smooth="yes"/>
      <point x="285" y="156"/>
      <point x="243" y="177"/>
      <point x="200" y="195" type="curve"/>
      <point x="200" y="198" type="line"/>
      <point x="241" y="216"/>
      <point x="272" y="241"/>
      <point x="272" y="289" type="curve" smooth="yes"/>
      <point x="272" y="344"/>
      <point x="234" y="377"/>
      <point x="171" y="377" type="curve" smooth="yes"/>
    </contour>
    <contour>
      <point x="202" y="158"/>
      <point x="245" y="143"/>
      <point x="245" y="97" type="curve" smooth="yes"/>
      <point x="245" y="58"/>
      <point x="214" y="29"/>
      <point x="161" y="29" type="curve" smooth="yes"/>
      <point x="111" y="29"/>
      <point x="81" y="56"/>
      <point x="81" y="96" type="curve" smooth="yes"/>
      <point x="81" y="143"/>
      <point x="121" y="162"/>
      <point x="159" y="175" type="curve"/>
    </contour>
    <contour>
      <point x="208" y="344"/>
      <point x="234" y="322"/>
      <point x="234" y="285" type="curve" smooth="yes"/>
      <point x="234" y="243"/>
      <point x="201" y="223"/>
      <point x="167" y="210" type="curve"/>
      <point x="130" y="225"/>
      <point x="97" y="241"/>
      <point x="97" y="281" type="curve" smooth="yes"/>
      <point x="97" y="320"/>
      <point x="125" y="344"/>
      <point x="168" y="344" type="curve" smooth="yes"/>
    </contour>
  </outline>
</glyph>
<glyph name="eight.lf" format="1">
  <advance width="465"/>
  <outline>
    <contour>
      <point x="144" y="590"/>
      <point x="76" y="536"/>
      <point x="76" y="443" type="curve" smooth="yes"/>
      <point x="76" y="366"/>
      <point x="127" y="329"/>
      <point x="184" y="303" type="curve"/>
      <point x="184" y="299" type="line"/>
      <point x="118" y="274"/>
      <point x="51" y="231"/>
      <point x="51" y="144" type="curve" smooth="yes"/>
      <point x="51" y="55"/>
      <point x="116" y="-5"/>
      <point x="222" y="-5" type="curve" smooth="yes"/>
      <point x="333" y="-5"/>
      <point x="406" y="57"/>
      <point x="406" y="155" type="curve" smooth="yes"/>
      <point x="406" y="244"/>
      <point x="340" y="277"/>
      <point x="273" y="305" type="curve"/>
      <point x="273" y="309" type="line"/>
      <point x="335" y="335"/>
      <point x="387" y="375"/>
      <point x="387" y="454" type="curve" smooth="yes"/>
      <point x="387" y="539"/>
      <point x="330" y="590"/>
      <point x="239" y="590" type="curve" smooth="yes"/>
    </contour>
    <contour>
      <point x="293" y="254"/>
      <point x="361" y="229"/>
      <point x="361" y="151" type="curve" smooth="yes"/>
      <point x="361" y="82"/>
      <point x="310" y="34"/>
      <point x="226" y="34" type="curve" smooth="yes"/>
      <point x="147" y="34"/>
      <point x="97" y="80"/>
      <point x="97" y="147" type="curve" smooth="yes"/>
      <point x="97" y="228"/>
      <point x="163" y="260"/>
      <point x="224" y="283" type="curve"/>
    </contour>
    <contour>
      <point x="303" y="551"/>
      <point x="344" y="513"/>
      <point x="344" y="451" type="curve" smooth="yes"/>
      <point x="344" y="377"/>
      <point x="289" y="345"/>
      <point x="232" y="324" type="curve"/>
      <point x="175" y="348"/>
      <point x="121" y="375"/>
      <point x="121" y="444" type="curve" smooth="yes"/>
      <point x="121" y="510"/>
      <point x="168" y="551"/>
      <point x="238" y="551" type="curve" smooth="yes"/>
    </contour>
  </outline>
</glyph>
<glyph name="eight.sinf" format="1">
  <advance width="331"/>
  <outline>
    <contour>
      <point x="103" y="257"/>
      <point x="57" y="221"/>
      <point x="57" y="161" type="curve" smooth="yes"/>
      <point x="57" y="112"/>
      <point x="89" y="88"/>
      <point x="126" y="71" type="curve"/>
      <point x="126" y="69" type="line"/>
      <point x="82" y="52"/>
      <point x="41" y="25"/>
      <point x="41" y="-29" type="curve" smooth="yes"/>
      <point x="41" y="-85"/>
      <point x="84" y="-124"/>
      <point x="158" y="-124" type="curve" smooth="yes"/>
      <point x="235" y="-124"/>
      <point x="285" y="-84"/>
      <point x="285" y="-19" type="curve" smooth="yes"/>
      <point x="285" y="36"/>
      <point x="243" y="57"/>
      <point x="200" y="75" type="curve"/>
      <point x="200" y="78" type="line"/>
      <point x="241" y="96"/>
      <point x="272" y="121"/>
      <point x="272" y="169" type="curve" smooth="yes"/>
      <point x="272" y="224"/>
      <point x="234" y="257"/>
      <point x="171" y="257" type="curve" smooth="yes"/>
    </contour>
    <contour>
      <point x="202" y="38"/>
      <point x="245" y="23"/>
      <point x="245" y="-23" type="curve" smooth="yes"/>
      <point x="245" y="-62"/>
      <point x="214" y="-91"/>
      <point x="161" y="-91" type="curve" smooth="yes"/>
      <point x="111" y="-91"/>
      <point x="81" y="-64"/>
      <point x="81" y="-24" type="curve" smooth="yes"/>
      <point x="81" y="23"/>
      <point x="121" y="42"/>
      <point x="159" y="55" type="curve"/>
    </contour>
    <contour>
      <point x="208" y="224"/>
      <point x="234" y="202"/>
      <point x="234" y="165" type="curve" smooth="yes"/>
      <point x="234" y="123"/>
      <point x="201" y="103"/>
      <point x="167" y="90" type="curve"/>
      <point x="130" y="105"/>
      <point x="97" y="121"/>
      <point x="97" y="161" type="curve" smooth="yes"/>
      <point x="97" y="200"/>
      <point x="125" y="224"/>
      <point x="168" y="224" type="curve" smooth="yes"/>
    </contour>
  </outline>
</glyph>
<glyph name="five.sinf" format="1">
  <advance width="297"/>
  <outline>
    <contour>
      <point x="200" y="254" type="line"/>
      <point x="105" y="254" type="line"/>
      <point x="70" y="255" type="line"/>
      <point x="63" y="247" type="line"/>
      <point x="60" y="86" type="line"/>
      <point x="63" y="80" type="line"/>
      <point x="120" y="69" type="line" smooth="yes"/>
      <point x="181" y="56"/>
      <point x="209" y="34"/>
      <point x="209" y="-2" type="curve" smooth="yes"/>
      <point x="209" y="-54"/>
      <point x="165" y="-88"/>
      <point x="97" y="-88" type="curve" smooth="yes"/>
      <point x="79" y="-88"/>
      <point x="58" y="-86"/>
      <point x="37" y="-81" type="curve"/>
      <point x="33" y="-85" type="line"/>
      <point x="37" y="-118" type="line"/>
      <point x="56" y="-121"/>
      <point x="80" y="-124"/>
      <point x="96" y="-124" type="curve" smooth="yes"/>
      <point x="191" y="-124"/>
      <point x="254" y="-75"/>
      <point x="254" y="1" type="curve" smooth="yes"/>
      <point x="254" y="55"/>
      <point x="218" y="87"/>
      <point x="140" y="104" type="curve" smooth="yes"/>
      <point x="97" y="114" type="line"/>
      <point x="100" y="217" type="line"/>
      <point x="207" y="217" type="line"/>
      <point x="248" y="214" type="line"/>
      <point x="252" y="217" type="line"/>
      <point x="256" y="253" type="line"/>
      <point x="254" y="256" type="line"/>
    </contour>
  </outline>
</glyph>
<glyph name="four.dnom" format="1">
  <advance width="344"/>
  <outline>
    <contour>
      <point x="197" y="374" type="line"/>
      <point x="28" y="143" type="line"/>
      <point x="28" y="112" type="line"/>
      <point x="32" y="107" type="line"/>
      <point x="74" y="109" type="line"/>
      <point x="244" y="109" type="line"/>
      <point x="303" y="107" type="line"/>
      <point x="307" y="141" type="line"/>
      <point x="303" y="146" type="line"/>
      <point x="71" y="146" type="line"/>
      <point x="196" y="317" type="line"/>
      <point x="200" y="317" type="line"/>
      <point x="200" y="134" type="line"/>
      <point x="199" y="0" type="line"/>
      <point x="202" y="-2" type="line"/>
      <point x="239" y="0" type="line"/>
      <point x="242" y="4" type="line"/>
      <point x="239" y="128" type="line"/>
      <point x="240" y="374" type="line"/>
    </contour>
  </outline>
</glyph>
<glyph name="j.sups" format="1">
  <advance width="169"/>
  <outline>
    <contour>
      <point x="52" y="774"/>
      <point x="41" y="762"/>
      <point x="41" y="744" type="curve" smooth="yes"/>
      <point x="41" y="727"/>
      <point x="52" y="716"/>
      <point x="69" y="716" type="curve" smooth="yes"/>
      <point x="85" y="716"/>
      <point x="97" y="727"/>
      <point x="97" y="745" type="curve" smooth="yes"/>
      <point x="97" y="763"/>
      <point x="87" y="774"/>
      <point x="70" y="774" type="curve" smooth="yes"/>
    </contour>
    <contour>
      <point x="50" y="640" type="line"/>
      <point x="5" y="640" type="line"/>
      <point x="2" y="607" type="line"/>
      <point x="5" y="602" type="line"/>
      <point x="50" y="603" type="line"/>
      <point x="51" y="470" type="line"/>
      <point x="51" y="353" type="line"/>
      <point x="51" y="300"/>
      <point x="39" y="273"/>
      <point x="5" y="246" type="curve"/>
      <point x="5" y="240" type="line"/>
      <point x="23" y="218" type="line"/>
      <point x="76" y="252"/>
      <point x="96" y="288"/>
      <point x="96" y="356" type="curve"/>
      <point x="94" y="474" type="line"/>
      <point x="96" y="642" type="line"/>
      <point x="94" y="643" type="line"/>
    </contour>
  </outline>
</glyph>
<glyph name="k.sups" format="1">
  <advance width="287"/>
  <outline>
    <contour>
      <point x="229" y="642" type="line"/>
      <point x="212" y="615" type="line"/>
      <point x="117" y="504" type="line"/>
      <point x="117" y="500" type="line"/>
      <point x="155" y="445"/>
      <point x="198" y="391"/>
      <point x="241" y="340" type="curve"/>
      <point x="247" y="338" type="line"/>
      <point x="262" y="341"/>
      <point x="276" y="342"/>
      <point x="290" y="346" type="curve"/>
      <point x="290" y="353" type="line"/>
      <point x="248" y="402"/>
      <point x="204" y="453"/>
      <point x="165" y="505" type="curve"/>
      <point x="281" y="642" type="line"/>
    </contour>
    <contour>
      <point x="59" y="796" type="line"/>
      <point x="61" y="470" type="line"/>
      <point x="59" y="344" type="line"/>
      <point x="108" y="344" type="line"/>
      <point x="105" y="474" type="line"/>
      <point x="108" y="800" type="line"/>
    </contour>
    <contour>
      <point x="178" y="0" type="move" name="bottom"/>
    </contour>
  </outline>
</glyph>
<glyph name="n.sups" format="1">
  <advance width="345"/>
  <outline>
    <contour>
      <point x="171" y="644"/>
      <point x="138" y="624"/>
      <point x="109" y="593" type="curve"/>
      <point x="100" y="593" type="line"/>
      <point x="100" y="556" type="line"/>
      <point x="128" y="588"/>
      <point x="160" y="605"/>
      <point x="187" y="605" type="curve" smooth="yes"/>
      <point x="226" y="605"/>
      <point x="247" y="583"/>
      <point x="247" y="540" type="curve" smooth="yes"/>
      <point x="244" y="344" type="line"/>
      <point x="293" y="344" type="line"/>
      <point x="292" y="473" type="line"/>
      <point x="292" y="557" type="line" smooth="yes"/>
      <point x="293" y="614"/>
      <point x="261" y="644"/>
      <point x="203" y="644" type="curve" smooth="yes"/>
    </contour>
    <contour>
      <point x="59" y="638" type="line"/>
      <point x="61" y="470" type="line"/>
      <point x="59" y="344" type="line"/>
      <point x="108" y="344" type="line"/>
      <point x="106" y="474" type="line"/>
      <point x="106" y="643" type="line"/>
    </contour>
    <contour>
      <point x="188" y="0" type="move" name="bottom"/>
    </contour>
    <contour>
      <point x="196" y="296" type="move" name="top"/>
    </contour>
  </outline>
</glyph>
<glyph name="nine.sinf" format="1">
  <advance width="331"/>
  <outline>
    <contour>
      <point x="86" y="260"/>
      <point x="43" y="211"/>
      <point x="43" y="140" type="curve"/>
      <point x="43" y="76"/>
      <point x="82" y="33"/>
      <point x="149" y="33" type="curve" smooth="yes"/>
      <point x="182" y="33"/>
      <point x="212" y="45"/>
      <point x="237" y="62" type="curve"/>
      <point x="247" y="53" type="line"/>
      <point x="254" y="104" type="line"/>
      <point x="226" y="81"/>
      <point x="195" y="68"/>
      <point x="161" y="68" type="curve" smooth="yes"/>
      <point x="113" y="68"/>
      <point x="86" y="94"/>
      <point x="86" y="144" type="curve"/>
      <point x="86" y="198"/>
      <point x="115" y="228"/>
      <point x="169" y="228" type="curve"/>
      <point x="224" y="228"/>
      <point x="250" y="189"/>
      <point x="250" y="120" type="curve"/>
      <point x="250" y="15"/>
      <point x="192" y="-53"/>
      <point x="65" y="-97" type="curve"/>
      <point x="65" y="-103" type="line"/>
      <point x="92" y="-124" type="line"/>
      <point x="96" y="-124" type="line"/>
      <point x="221" y="-77"/>
      <point x="292" y="11"/>
      <point x="292" y="120" type="curve"/>
      <point x="292" y="209"/>
      <point x="248" y="260"/>
      <point x="170" y="260" type="curve"/>
    </contour>
  </outline>
</glyph>
<glyph name="one.dnom" format="1">
  <advance width="250"/>
  <outline>
    <contour>
      <point x="15" y="341" type="line"/>
      <point x="15" y="304" type="line"/>
      <point x="20" y="301" type="line"/>
      <point x="108" y="325" type="line"/>
      <point x="108" y="126" type="line"/>
      <point x="107" y="0" type="line"/>
      <point x="154" y="0" type="line"/>
      <point x="153" y="132" type="line"/>
      <point x="154" y="373" type="line"/>
      <point x="148" y="379" type="line"/>
    </contour>
  </outline>
</glyph>
<glyph name="one.lf" format="1">
  <advance width="348"/>
  <outline>
    <contour>
      <point x="13" y="536" type="line"/>
      <point x="13" y="496" type="line"/>
      <point x="19" y="492" type="line"/>
      <point x="162" y="532" type="line"/>
      <point x="163" y="199" type="line"/>
      <point x="160" y="0" type="line"/>
      <point x="212" y="0" type="line"/>
      <point x="210" y="206" type="line"/>
      <point x="213" y="587" type="line"/>
      <point x="204" y="593" type="line"/>
    </contour>
  </outline>
</glyph>
<glyph name="one.sinf" format="1">
  <advance width="250"/>
  <outline>
    <contour>
      <point x="15" y="221" type="line"/>
      <point x="15" y="184" type="line"/>
      <point x="20" y="181" type="line"/>
      <point x="108" y="205" type="line"/>
      <point x="108" y="6" type="line"/>
      <point x="107" y="-120" type="line"/>
      <point x="154" y="-120" type="line"/>
      <point x="153" y="12" type="line"/>
      <point x="154" y="253" type="line"/>
      <point x="148" y="259" type="line"/>
    </contour>
  </outline>
</glyph>
<glyph name="right" format="1">
  <advance width="406"/>
  <outline>
    <contour>
      <point x="98" y="85" type="line"/>
      <point x="375" y="223" type="line"/>
      <point x="98" y="362" type="line"/>
    </contour>
  </outline>
</glyph>
<glyph name="s.sups" format="1">
  <advance width="252"/>
  <outline>
    <contour>
      <point x="74" y="645"/>
      <point x="36" y="610"/>
      <point x="36" y="559" type="curve" smooth="yes"/>
      <point x="36" y="472"/>
      <point x="175" y="481"/>
      <point x="175" y="420" type="curve" smooth="yes"/>
      <point x="175" y="396"/>
      <point x="154" y="372"/>
      <point x="115" y="372" type="curve" smooth="yes"/>
      <point x="91" y="372"/>
      <point x="61" y="382"/>
      <point x="37" y="401" type="curve"/>
      <point x="32" y="397" type="line"/>
      <point x="26" y="359" type="line"/>
      <point x="53" y="345"/>
      <point x="84" y="338"/>
      <point x="111" y="338" type="curve" smooth="yes"/>
      <point x="180" y="338"/>
      <point x="217" y="381"/>
      <point x="217" y="426" type="curve" smooth="yes"/>
      <point x="217" y="516"/>
      <point x="78" y="507"/>
      <point x="78" y="565" type="curve" smooth="yes"/>
      <point x="78" y="592"/>
      <point x="99" y="612"/>
      <point x="133" y="612" type="curve" smooth="yes"/>
      <point x="148" y="612"/>
      <point x="171" y="606"/>
      <point x="195" y="593" type="curve"/>
      <point x="202" y="596" type="line"/>
      <point x="208" y="632" type="line"/>
      <point x="184" y="641"/>
      <point x="160" y="645"/>
      <point x="138" y="645" type="curve" smooth="yes"/>
    </contour>
    <contour>
      <point x="129" y="0" type="move" name="bottom"/>
    </contour>
    <contour>
      <point x="136" y="297" type="move" name="top"/>
    </contour>
  </outline>
</glyph>
<glyph name="seven.lf" format="1">
  <advance width="414"/>
  <outline>
    <contour>
      <point x="29" y="545" type="line"/>
      <point x="34" y="538" type="line"/>
      <point x="100" y="541" type="line"/>
      <point x="328" y="541" type="line"/>
      <point x="90" y="11" type="line"/>
      <point x="93" y="2" type="line"/>
      <point x="136" y="-10" type="line"/>
      <point x="177" y="93" type="line"/>
      <point x="379" y="548" type="line"/>
      <point x="379" y="587" type="line"/>
      <point x="340" y="586" type="line"/>
      <point x="110" y="586" type="line"/>
      <point x="33" y="587" type="line"/>
    </contour>
  </outline>
</glyph>
<glyph name="six.sinf" format="1">
  <advance width="330"/>
  <outline>
    <contour>
      <point x="237" y="259" type="line"/>
      <point x="113" y="211"/>
      <point x="41" y="124"/>
      <point x="41" y="14" type="curve"/>
      <point x="41" y="-74"/>
      <point x="86" y="-124"/>
      <point x="164" y="-124" type="curve"/>
      <point x="248" y="-124"/>
      <point x="291" y="-76"/>
      <point x="291" y="-4" type="curve"/>
      <point x="291" y="59"/>
      <point x="252" y="102"/>
      <point x="184" y="102" type="curve" smooth="yes"/>
      <point x="151" y="102"/>
      <point x="122" y="90"/>
      <point x="96" y="72" type="curve"/>
      <point x="87" y="82" type="line"/>
      <point x="80" y="32" type="line"/>
      <point x="107" y="54"/>
      <point x="139" y="67"/>
      <point x="172" y="67" type="curve" smooth="yes"/>
      <point x="220" y="67"/>
      <point x="248" y="41"/>
      <point x="248" y="-8" type="curve"/>
      <point x="248" y="-63"/>
      <point x="219" y="-93"/>
      <point x="165" y="-93" type="curve"/>
      <point x="110" y="-93"/>
      <point x="85" y="-54"/>
      <point x="85" y="15" type="curve"/>
      <point x="85" y="119"/>
      <point x="142" y="187"/>
      <point x="269" y="233" type="curve"/>
      <point x="269" y="238" type="line"/>
      <point x="241" y="259" type="line"/>
    </contour>
  </outline>
</glyph>
<glyph name="six.tosf" format="1">
  <advance width="475"/>
  <outline>
    <contour>
      <point x="359" y="593" type="line"/>
      <point x="166" y="522"/>
      <point x="56" y="383"/>
      <point x="56" y="208" type="curve"/>
      <point x="56" y="71"/>
      <point x="122" y="-7"/>
      <point x="236" y="-7" type="curve"/>
      <point x="360" y="-7"/>
      <point x="424" y="65"/>
      <point x="424" y="178" type="curve"/>
      <point x="424" y="279"/>
      <point x="365" y="342"/>
      <point x="263" y="342" type="curve" smooth="yes"/>
      <point x="208" y="342"/>
      <point x="158" y="323"/>
      <point x="117" y="291" type="curve"/>
      <point x="106" y="302" type="line"/>
      <point x="97" y="239" type="line"/>
      <point x="142" y="278"/>
      <point x="196" y="302"/>
      <point x="252" y="302" type="curve" smooth="yes"/>
      <point x="331" y="302"/>
      <point x="377" y="257"/>
      <point x="377" y="174" type="curve"/>
      <point x="377" y="82"/>
      <point x="328" y="31"/>
      <point x="237" y="31" type="curve"/>
      <point x="148" y="31"/>
      <point x="103" y="95"/>
      <point x="103" y="209" type="curve"/>
      <point x="103" y="376"/>
      <point x="198" y="492"/>
      <point x="392" y="563" type="curve"/>
      <point x="392" y="569" type="line"/>
      <point x="364" y="593" type="line"/>
    </contour>
  </outline>
</glyph>
<glyph name="three.dnom" format="1">
  <advance width="301"/>
  <outline>
    <contour>
      <point x="100" y="378"/>
      <point x="65" y="365"/>
      <point x="32" y="338" type="curve"/>
      <point x="40" y="305" type="line"/>
      <point x="45" y="305" type="line"/>
      <point x="74" y="328"/>
      <point x="100" y="340"/>
      <point x="127" y="340" type="curve" smooth="yes"/>
      <point x="164" y="340"/>
      <point x="188" y="320"/>
      <point x="188" y="288" type="curve" smooth="yes"/>
      <point x="188" y="245"/>
      <point x="142" y="214"/>
      <point x="107" y="214" type="curve" smooth="yes"/>
      <point x="77" y="214" type="line"/>
      <point x="76" y="182" type="line"/>
      <point x="79" y="178" type="line"/>
      <point x="118" y="178" type="line"/>
      <point x="175" y="176"/>
      <point x="206" y="152"/>
      <point x="206" y="110" type="curve" smooth="yes"/>
      <point x="206" y="63"/>
      <point x="166" y="34"/>
      <point x="103" y="34" type="curve" smooth="yes"/>
      <point x="84" y="34"/>
      <point x="60" y="36"/>
      <point x="39" y="41" type="curve"/>
      <point x="35" y="37" type="line"/>
      <point x="38" y="4" type="line"/>
      <point x="58" y="-1"/>
      <point x="84" y="-3"/>
      <point x="103" y="-3" type="curve" smooth="yes"/>
      <point x="192" y="-3"/>
      <point x="252" y="43"/>
      <point x="252" y="109" type="curve" smooth="yes"/>
      <point x="252" y="156"/>
      <point x="223" y="188"/>
      <point x="170" y="201" type="curve"/>
      <point x="170" y="204" type="line"/>
      <point x="213" y="224"/>
      <point x="236" y="262"/>
      <point x="236" y="296" type="curve" smooth="yes"/>
      <point x="236" y="346"/>
      <point x="195" y="378"/>
      <point x="136" y="378" type="curve" smooth="yes"/>
    </contour>
  </outline>
</glyph>
<glyph name="three.sinf" format="1">
  <advance width="301"/>
  <outline>
    <contour>
      <point x="100" y="258"/>
      <point x="65" y="245"/>
      <point x="32" y="218" type="curve"/>
      <point x="40" y="185" type="line"/>
      <point x="45" y="185" type="line"/>
      <point x="74" y="208"/>
      <point x="100" y="220"/>
      <point x="127" y="220" type="curve" smooth="yes"/>
      <point x="164" y="220"/>
      <point x="188" y="200"/>
      <point x="188" y="168" type="curve" smooth="yes"/>
      <point x="188" y="125"/>
      <point x="142" y="94"/>
      <point x="107" y="94" type="curve" smooth="yes"/>
      <point x="77" y="94" type="line"/>
      <point x="76" y="62" type="line"/>
      <point x="79" y="58" type="line"/>
      <point x="118" y="58" type="line"/>
      <point x="175" y="56"/>
      <point x="206" y="32"/>
      <point x="206" y="-10" type="curve" smooth="yes"/>
      <point x="206" y="-57"/>
      <point x="166" y="-86"/>
      <point x="103" y="-86" type="curve" smooth="yes"/>
      <point x="84" y="-86"/>
      <point x="60" y="-84"/>
      <point x="39" y="-79" type="curve"/>
      <point x="35" y="-83" type="line"/>
      <point x="38" y="-116" type="line"/>
      <point x="58" y="-121"/>
      <point x="84" y="-123"/>
      <point x="103" y="-123" type="curve" smooth="yes"/>
      <point x="192" y="-123"/>
      <point x="252" y="-77"/>
      <point x="252" y="-11" type="curve" smooth="yes"/>
      <point x="252" y="36"/>
      <point x="223" y="68"/>
      <point x="170" y="81" type="curve"/>
      <point x="170" y="84" type="line"/>
      <point x="213" y="104"/>
      <point x="236" y="142"/>
      <point x="236" y="176" type="curve" smooth="yes"/>
      <point x="236" y="226"/>
      <point x="195" y="258"/>
      <point x="136" y="258" type="curve" smooth="yes"/>
    </contour>
  </outline>
</glyph>
<glyph name="two.lf" format="1">
  <advance width="486"/>
  <outline>
    <contour>
      <point x="175" y="590"/>
      <point x="111" y="554"/>
      <point x="63" y="498" type="curve"/>
      <point x="72" y="457" type="line"/>
      <point x="79" y="457" type="line"/>
      <point x="123" y="513"/>
      <point x="178" y="545"/>
      <point x="235" y="545" type="curve" smooth="yes"/>
      <point x="299" y="545"/>
      <point x="333" y="505"/>
      <point x="333" y="457" type="curve" smooth="yes"/>
      <point x="333" y="401"/>
      <point x="286" y="337"/>
      <point x="209" y="237" type="curve" smooth="yes"/>
      <point x="54" y="36" type="line"/>
      <point x="54" y="1" type="line"/>
      <point x="57" y="-1" type="line"/>
      <point x="100" y="0" type="line"/>
      <point x="350" y="0" type="line"/>
      <point x="452" y="-2" type="line"/>
      <point x="460" y="41" type="line"/>
      <point x="455" y="47" type="line"/>
      <point x="364" y="43" type="line"/>
      <point x="123" y="43" type="line"/>
      <point x="121" y="47" type="line"/>
      <point x="251" y="218" type="line" smooth="yes"/>
      <point x="337" y="332"/>
      <point x="383" y="401"/>
      <point x="383" y="467" type="curve" smooth="yes"/>
      <point x="383" y="540"/>
      <point x="326" y="590"/>
      <point x="244" y="590" type="curve" smooth="yes"/>
    </contour>
  </outline>
</glyph>
<glyph name="two.tf" format="1">
  <advance width="475"/>
  <outline>
    <contour>
      <point x="170" y="590"/>
      <point x="107" y="554"/>
      <point x="60" y="498" type="curve"/>
      <point x="69" y="457" type="line"/>
      <point x="76" y="457" type="line"/>
      <point x="119" y="513"/>
      <point x="173" y="545"/>
      <point x="229" y="545" type="curve" smooth="yes"/>
      <point x="292" y="545"/>
      <point x="326" y="505"/>
      <point x="326" y="457" type="curve" smooth="yes"/>
      <point x="326" y="401"/>
      <point x="279" y="337"/>
      <point x="204" y="237" type="curve" smooth="yes"/>
      <point x="51" y="36" type="line"/>
      <point x="51" y="1" type="line"/>
      <point x="54" y="-1" type="line"/>
      <point x="97" y="0" type="line"/>
      <point x="343" y="0" type="line"/>
      <point x="443" y="-2" type="line"/>
      <point x="450" y="39" type="line"/>
      <point x="446" y="46" type="line"/>
      <point x="356" y="43" type="line"/>
      <point x="120" y="43" type="line"/>
      <point x="118" y="47" type="line"/>
      <point x="246" y="218" type="line" smooth="yes"/>
      <point x="330" y="332"/>
      <point x="376" y="401"/>
      <point x="376" y="467" type="curve" smooth="yes"/>
      <point x="376" y="540"/>
      <point x="319" y="590"/>
      <point x="239" y="590" type="curve" smooth="yes"/>
    </contour>
  </outline>
</glyph>
<glyph name="y.sups" format="1">
  <advance width="259"/>
  <outline>
    <contour>
      <point x="-7" y="640" type="line"/>
      <point x="103" y="344" type="line"/>
      <point x="72" y="284"/>
      <point x="41" y="267"/>
      <point x="-19" y="255" type="curve"/>
      <point x="-20" y="248" type="line"/>
      <point x="-15" y="238"/>
      <point x="-8" y="228"/>
      <point x="1" y="219" type="curve"/>
      <point x="6" y="219" type="line"/>
      <point x="84" y="241"/>
      <point x="117" y="267"/>
      <point x="149" y="353" type="curve" smooth="yes"/>
      <point x="257" y="642" type="line"/>
      <point x="214" y="642" type="line"/>
      <point x="203" y="602" type="line"/>
      <point x="127" y="398" type="line"/>
      <point x="123" y="398" type="line"/>
      <point x="49" y="606" type="line"/>
      <point x="39" y="644" type="line"/>
    </contour>
    <contour>
      <point x="141" y="296" type="move" name="top"/>
    </contour>
  </outline>
</glyph>
<glyph name="z.sups" format="1">
  <advance width="273"/>
  <outline>
    <contour>
      <point x="28" y="612" type="line"/>
      <point x="31" y="608" type="line"/>
      <point x="70" y="610" type="line"/>
      <point x="193" y="610" type="line"/>
      <point x="22" y="373" type="line"/>
      <point x="22" y="342" type="line"/>
      <point x="51" y="344" type="line"/>
      <point x="191" y="344" type="line"/>
      <point x="245" y="343" type="line"/>
      <point x="249" y="374" type="line"/>
      <point x="246" y="378" type="line"/>
      <point x="203" y="376" type="line"/>
      <point x="76" y="376" type="line"/>
      <point x="246" y="612" type="line"/>
      <point x="245" y="643" type="line"/>
      <point x="221" y="642" type="line"/>
      <point x="78" y="642" type="line"/>
      <point x="32" y="643" type="line"/>
    </contour>
    <contour>
      <point x="149" y="296" type="move" name="top"/>
    </contour>
  </outline>
</glyph>
<glyph name="zero.lf" format="1">
  <advance width="536"/>
  <outline>
    <contour>
      <point x="135" y="589"/>
      <point x="60" y="481"/>
      <point x="60" y="289" type="curve" smooth="yes"/>
      <point x="60" y="100"/>
      <point x="133" y="-5"/>
      <point x="265" y="-5" type="curve" smooth="yes"/>
      <point x="400" y="-5"/>
      <point x="475" y="102"/>
      <point x="475" y="295" type="curve" smooth="yes"/>
      <point x="475" y="484"/>
      <point x="402" y="589"/>
      <point x="271" y="589" type="curve" smooth="yes"/>
    </contour>
    <contour>
      <point x="375" y="540"/>
      <point x="432" y="452"/>
      <point x="432" y="290" type="curve" smooth="yes"/>
      <point x="432" y="128"/>
      <point x="375" y="41"/>
      <point x="269" y="41" type="curve" smooth="yes"/>
      <point x="161" y="41"/>
      <point x="103" y="130"/>
      <point x="103" y="293" type="curve" smooth="yes"/>
      <point x="103" y="453"/>
      <point x="160" y="540"/>
      <point x="267" y="540" type="curve" smooth="yes"/>
    </contour>
  </outline>
</glyph>
